<svg version="1.1" viewBox="0.0 0.0 771.2152230971128 395.98425196850394" fill="none" stroke="none" stroke-linecap="square" stroke-miterlimit="10" xmlns:xlink="http://www.w3.org/1999/xlink" xmlns="http://www.w3.org/2000/svg"><clipPath id="p.0"><path d="m0 0l771.2152 0l0 395.98425l-771.2152 0l0 -395.98425z" clip-rule="nonzero"/></clipPath><g clip-path="url(#p.0)"><path fill="#000000" fill-opacity="0.0" d="m0 0l771.2152 0l0 395.98425l-771.2152 0z" fill-rule="evenodd"/><path fill="#f3f3f3" d="m4.03937 288.77692l0 0c0 -56.985367 46.19575 -103.18112 103.18111 -103.18112l0 0c27.365326 0 53.609848 10.870834 72.96005 30.221054c19.35022 19.350204 30.221054 45.59471 30.221054 72.96007l0 0c0 56.98532 -46.195755 103.18109 -103.18111 103.18109l0 0c-56.98535 0 -103.18111 -46.19577 -103.18111 -103.18109z" fill-rule="evenodd"/><path stroke="#000000" stroke-width="1.0" stroke-linejoin="round" stroke-linecap="butt" d="m4.03937 288.77692l0 0c0 -56.985367 46.19575 -103.18112 103.18111 -103.18112l0 0c27.365326 0 53.609848 10.870834 72.96005 30.221054c19.35022 19.350204 30.221054 45.59471 30.221054 72.96007l0 0c0 56.98532 -46.195755 103.18109 -103.18111 103.18109l0 0c-56.98535 0 -103.18111 -46.19577 -103.18111 -103.18109z" fill-rule="evenodd"/><path fill="#000000" d="m45.854164 289.90128l0 5.015625l-1.03125 0l0 -12.3125l4.1875 0q1.921875 0 3.03125 0.984375q1.125 0.96875 1.125 2.6875q0 1.734375 -1.078125 2.6875q-1.0625 0.9375 -3.09375 0.9375l-3.140625 0zm0 -0.875l3.15625 0q1.515625 0 2.3125 -0.71875q0.796875 -0.71875 0.796875 -2.015625q0 -1.28125 -0.796875 -2.03125q-0.78125 -0.75 -2.234375 -0.78125l-3.234375 0l0 5.546875zm13.622452 -2.40625q-0.3125 -0.046875 -0.6875 -0.046875q-0.9375 0 -1.59375 0.53125q-0.65625 0.515625 -0.9375 1.53125l0 6.28125l-1.015625 0l0 -9.15625l1.0 0l0.015625 1.453125q0.796875 -1.625 2.578125 -1.625q0.421875 0 0.671875 0.109375l-0.03125 0.921875zm0.8791199 3.578125q0 -1.3125 0.5 -2.359375q0.515625 -1.0625 1.453125 -1.65625q0.9375 -0.59375 2.125 -0.59375q1.828125 0 2.953125 1.28125q1.140625 1.28125 1.140625 3.40625l0 0.203125q0 1.328125 -0.515625 2.390625q-0.515625 1.0625 -1.453125 1.640625q-0.921875 0.578125 -2.109375 0.578125q-1.828125 0 -2.96875 -1.28125q-1.125 -1.28125 -1.125 -3.40625l0 -0.203125zm1.015625 0.28125q0 1.640625 0.84375 2.703125q0.859375 1.046875 2.234375 1.046875q1.375 0 2.21875 -1.046875q0.84375 -1.0625 0.84375 -2.78125l0 -0.203125q0 -1.046875 -0.390625 -1.90625q-0.375 -0.875 -1.078125 -1.359375q-0.703125 -0.484375 -1.609375 -0.484375q-1.359375 0 -2.21875 1.0625q-0.84375 1.0625 -0.84375 2.78125l0 0.1875zm12.626648 3.75q1.0625 0 1.765625 -0.59375q0.71875 -0.59375 0.78125 -1.546875l0.96875 0q-0.03125 0.84375 -0.515625 1.53125q-0.484375 0.6875 -1.28125 1.078125q-0.796875 0.390625 -1.71875 0.390625q-1.796875 0 -2.859375 -1.25q-1.046875 -1.25 -1.046875 -3.375l0 -0.296875q0 -1.359375 0.46875 -2.390625q0.484375 -1.046875 1.359375 -1.609375q0.890625 -0.578125 2.078125 -0.578125q1.5 0 2.46875 0.90625q0.984375 0.890625 1.046875 2.359375l-0.96875 0q-0.0625 -1.078125 -0.78125 -1.734375q-0.703125 -0.671875 -1.765625 -0.671875q-1.375 0 -2.140625 1.0q-0.75 0.984375 -0.75 2.765625l0 0.296875q0 1.765625 0.75 2.75q0.765625 0.96875 2.140625 0.96875zm9.082611 0.859375q-1.15625 0 -2.109375 -0.578125q-0.9375 -0.578125 -1.46875 -1.59375q-0.515625 -1.03125 -0.515625 -2.3125l0 -0.359375q0 -1.328125 0.5 -2.375q0.515625 -1.0625 1.421875 -1.671875q0.921875 -0.609375 1.984375 -0.609375q1.671875 0 2.640625 1.140625q0.984375 1.140625 0.984375 3.109375l0 0.5625l-6.53125 0l0 0.203125q0 1.546875 0.890625 2.59375q0.890625 1.03125 2.25 1.03125q0.8125 0 1.4375 -0.296875q0.625 -0.296875 1.125 -0.9375l0.640625 0.46875q-1.125 1.625 -3.25 1.625zm-0.1875 -8.640625q-1.140625 0 -1.921875 0.84375q-0.78125 0.84375 -0.953125 2.25l5.5 0l0 -0.109375q-0.046875 -1.3125 -0.765625 -2.140625q-0.703125 -0.84375 -1.859375 -0.84375zm11.076736 6.140625q0 -0.75 -0.609375 -1.203125q-0.59375 -0.46875 -1.8125 -0.71875q-1.21875 -0.265625 -1.890625 -0.59375q-0.671875 -0.328125 -1.0 -0.8125q-0.328125 -0.484375 -0.328125 -1.171875q0 -1.078125 0.90625 -1.78125q0.90625 -0.71875 2.3125 -0.71875q1.546875 0 2.46875 0.765625q0.921875 0.75 0.921875 1.96875l-1.015625 0q0 -0.796875 -0.671875 -1.328125q-0.671875 -0.546875 -1.703125 -0.546875q-0.984375 0 -1.59375 0.453125q-0.609375 0.4375 -0.609375 1.15625q0 0.6875 0.5 1.0625q0.515625 0.375 1.84375 0.6875q1.328125 0.3125 1.984375 0.671875q0.671875 0.34375 0.984375 0.84375q0.328125 0.5 0.328125 1.21875q0 1.15625 -0.9375 1.859375q-0.921875 0.6875 -2.4375 0.6875q-1.59375 0 -2.59375 -0.765625q-0.984375 -0.78125 -0.984375 -1.96875l1.015625 0q0.046875 0.890625 0.734375 1.390625q0.703125 0.484375 1.828125 0.484375q1.0625 0 1.703125 -0.453125q0.65625 -0.46875 0.65625 -1.1875zm8.774063 0q0 -0.75 -0.609375 -1.203125q-0.59375 -0.46875 -1.8125 -0.71875q-1.21875 -0.265625 -1.890625 -0.59375q-0.671875 -0.328125 -1.0 -0.8125q-0.328125 -0.484375 -0.328125 -1.171875q0 -1.078125 0.90625 -1.78125q0.90625 -0.71875 2.3125 -0.71875q1.546875 0 2.46875 0.765625q0.921875 0.75 0.921875 1.96875l-1.015625 0q0 -0.796875 -0.671875 -1.328125q-0.671875 -0.546875 -1.703125 -0.546875q-0.984375 0 -1.59375 0.453125q-0.609375 0.4375 -0.609375 1.15625q0 0.6875 0.5 1.0625q0.515625 0.375 1.84375 0.6875q1.328125 0.3125 1.984375 0.671875q0.671875 0.34375 0.984375 0.84375q0.328125 0.5 0.328125 1.21875q0 1.15625 -0.9375 1.859375q-0.921875 0.6875 -2.4375 0.6875q-1.59375 0 -2.59375 -0.765625q-0.984375 -0.78125 -0.984375 -1.96875l1.015625 0q0.046875 0.890625 0.734375 1.390625q0.703125 0.484375 1.828125 0.484375q1.0625 0 1.703125 -0.453125q0.65625 -0.46875 0.65625 -1.1875zm6.836563 2.5q-1.15625 0 -2.109375 -0.578125q-0.9375 -0.578125 -1.46875 -1.59375q-0.515625 -1.03125 -0.515625 -2.3125l0 -0.359375q0 -1.328125 0.5 -2.375q0.515625 -1.0625 1.421875 -1.671875q0.921875 -0.609375 1.984375 -0.609375q1.671875 0 2.640625 1.140625q0.984375 1.140625 0.984375 3.109375l0 0.5625l-6.53125 0l0 0.203125q0 1.546875 0.890625 2.59375q0.890625 1.03125 2.25 1.03125q0.8125 0 1.4375 -0.296875q0.625 -0.296875 1.125 -0.9375l0.640625 0.46875q-1.125 1.625 -3.25 1.625zm-0.1875 -8.640625q-1.140625 0 -1.921875 0.84375q-0.78125 0.84375 -0.953125 2.25l5.5 0l0 -0.109375q-0.046875 -1.3125 -0.765625 -2.140625q-0.703125 -0.84375 -1.859375 -0.84375zm5.1861115 3.8125q0 -2.140625 0.953125 -3.40625q0.953125 -1.265625 2.59375 -1.265625q1.84375 0 2.828125 1.46875l0 -5.140625l1.0 0l0 13.0l-0.953125 0l-0.03125 -1.21875q-0.96875 1.390625 -2.859375 1.390625q-1.59375 0 -2.5625 -1.265625q-0.96875 -1.28125 -0.96875 -3.453125l0 -0.109375zm1.03125 0.171875q0 1.75 0.703125 2.765625q0.703125 1.015625 1.984375 1.015625q1.859375 0 2.65625 -1.65625l0 -4.296875q-0.796875 -1.78125 -2.640625 -1.78125q-1.28125 0 -2.0 1.0q-0.703125 1.0 -0.703125 2.953125zm20.435951 1.453125q0 -1.015625 -0.71875 -1.609375q-0.71875 -0.609375 -2.640625 -1.140625q-1.90625 -0.546875 -2.78125 -1.171875q-1.25 -0.90625 -1.25 -2.359375q0 -1.40625 1.15625 -2.28125q1.15625 -0.890625 2.96875 -0.890625q1.234375 0 2.203125 0.46875q0.96875 0.46875 1.5 1.328125q0.53125 0.84375 0.53125 1.875l-1.046875 0q0 -1.25 -0.875 -2.015625q-0.859375 -0.765625 -2.3125 -0.765625q-1.40625 0 -2.25 0.625q-0.828125 0.625 -0.828125 1.640625q0 0.9375 0.75 1.53125q0.75 0.59375 2.40625 1.046875q1.65625 0.453125 2.515625 0.9375q0.859375 0.484375 1.28125 1.171875q0.4375 0.671875 0.4375 1.59375q0 1.453125 -1.171875 2.34375q-1.15625 0.875 -3.0625 0.875q-1.296875 0 -2.390625 -0.46875q-1.078125 -0.46875 -1.640625 -1.296875q-0.5625 -0.84375 -0.5625 -1.921875l1.03125 0q0 1.296875 0.96875 2.0625q0.984375 0.75 2.59375 0.75q1.4375 0 2.3125 -0.640625q0.875 -0.640625 0.875 -1.6875zm6.591324 3.203125q-1.15625 0 -2.109375 -0.578125q-0.9375 -0.578125 -1.46875 -1.59375q-0.515625 -1.03125 -0.515625 -2.3125l0 -0.359375q0 -1.328125 0.5 -2.375q0.515625 -1.0625 1.421875 -1.671875q0.921875 -0.609375 1.984375 -0.609375q1.671875 0 2.640625 1.140625q0.984375 1.140625 0.984375 3.109375l0 0.5625l-6.53125 0l0 0.203125q0 1.546875 0.890625 2.59375q0.890625 1.03125 2.25 1.03125q0.8125 0 1.4375 -0.296875q0.625 -0.296875 1.125 -0.9375l0.640625 0.46875q-1.125 1.625 -3.25 1.625zm-0.1875 -8.640625q-1.140625 0 -1.921875 0.84375q-0.78125 0.84375 -0.953125 2.25l5.5 0l0 -0.109375q-0.046875 -1.3125 -0.765625 -2.140625q-0.703125 -0.84375 -1.859375 -0.84375zm7.1704865 -3.03125l0 2.34375l1.890625 0l0 0.828125l-1.890625 0l0 6.109375q0 0.75 0.265625 1.125q0.28125 0.375 0.9375 0.375q0.25 0 0.8125 -0.078125l0.046875 0.828125q-0.40625 0.140625 -1.09375 0.140625q-1.03125 0 -1.515625 -0.609375q-0.46875 -0.609375 -0.46875 -1.78125l0 -6.109375l-1.6875 0l0 -0.828125l1.6875 0l0 -2.34375l1.015625 0z" fill-rule="nonzero"/><path fill="#f3f3f3" d="m378.0971 197.65463l0 0c0 -107.30849 86.99072 -194.29921 194.2992 -194.29921l0 0c51.531372 0 100.95215 20.470753 137.39032 56.90892c36.43817 36.43817 56.908936 85.85893 56.908936 137.39029l0 0c0 107.3085 -86.99072 194.29922 -194.29926 194.29922l0 0c-107.30847 0 -194.2992 -86.99072 -194.2992 -194.29922z" fill-rule="evenodd"/><path stroke="#000000" stroke-width="1.0" stroke-linejoin="round" stroke-linecap="butt" d="m378.0971 197.65463l0 0c0 -107.30849 86.99072 -194.29921 194.2992 -194.29921l0 0c51.531372 0 100.95215 20.470753 137.39032 56.90892c36.43817 36.43817 56.908936 85.85893 56.908936 137.39029l0 0c0 107.3085 -86.99072 194.29922 -194.29926 194.29922l0 0c-107.30847 0 -194.2992 -86.99072 -194.2992 -194.29922z" fill-rule="evenodd"/><path fill="#000000" d="m513.83093 191.309l0 9.0625q-0.015625 1.328125 -0.59375 2.328125q-0.578125 0.984375 -1.640625 1.53125q-1.0625 0.53125 -2.4375 0.53125q-2.09375 0 -3.359375 -1.140625q-1.265625 -1.15625 -1.3125 -3.171875l0 -9.140625l1.125 0l0 8.96875q0 1.6875 0.953125 2.609375q0.953125 0.921875 2.59375 0.921875q1.640625 0 2.59375 -0.921875q0.953125 -0.9375 0.953125 -2.59375l0 -8.984375l1.125 0zm3.9020386 3.40625l0.046875 1.6875q0.546875 -0.90625 1.375 -1.375q0.828125 -0.484375 1.84375 -0.484375q1.578125 0 2.34375 0.890625q0.78125 0.890625 0.796875 2.671875l0 6.46875l-1.09375 0l0 -6.484375q0 -1.3125 -0.5625 -1.953125q-0.546875 -0.65625 -1.75 -0.65625q-1.015625 0 -1.796875 0.640625q-0.78125 0.625 -1.15625 1.703125l0 6.75l-1.078125 0l0 -9.859375l1.03125 0zm17.138794 5.03125q0 2.3125 -1.015625 3.671875q-1.015625 1.34375 -2.734375 1.34375q-2.015625 0 -3.09375 -1.421875l0 5.03125l-1.09375 0l0 -13.65625l1.015625 0l0.0625 1.390625q1.0625 -1.5625 3.078125 -1.5625q1.765625 0 2.765625 1.34375q1.015625 1.328125 1.015625 3.703125l0 0.15625zm-1.09375 -0.1875q0 -1.890625 -0.78125 -2.984375q-0.765625 -1.09375 -2.15625 -1.09375q-1.0 0 -1.71875 0.484375q-0.71875 0.484375 -1.09375 1.40625l0 4.71875q0.390625 0.859375 1.109375 1.3125q0.734375 0.4375 1.734375 0.4375q1.375 0 2.140625 -1.09375q0.765625 -1.109375 0.765625 -3.1875zm8.058044 -3.90625q-0.34375 -0.0625 -0.734375 -0.0625q-1.015625 0 -1.71875 0.5625q-0.703125 0.5625 -1.015625 1.65625l0 6.765625l-1.078125 0l0 -9.859375l1.0625 0l0.015625 1.5625q0.875 -1.734375 2.78125 -1.734375q0.453125 0 0.71875 0.109375l-0.03125 1.0zm0.9378662 3.84375q0 -1.421875 0.546875 -2.546875q0.5625 -1.140625 1.5625 -1.765625q1.015625 -0.640625 2.28125 -0.640625q1.96875 0 3.1875 1.375q1.234375 1.375 1.234375 3.65625l0 0.234375q0 1.421875 -0.5625 2.5625q-0.546875 1.140625 -1.546875 1.765625q-1.0 0.625 -2.28125 0.625q-1.96875 0 -3.203125 -1.375q-1.21875 -1.390625 -1.21875 -3.671875l0 -0.21875zm1.09375 0.3125q0 1.765625 0.921875 2.90625q0.921875 1.125 2.40625 1.125q1.46875 0 2.375 -1.125q0.921875 -1.140625 0.921875 -3.0l0 -0.21875q0 -1.125 -0.421875 -2.0625q-0.40625 -0.9375 -1.171875 -1.453125q-0.75 -0.515625 -1.734375 -0.515625q-1.453125 0 -2.375 1.140625q-0.921875 1.140625 -0.921875 3.0l0 0.203125zm13.604858 4.03125q1.140625 0 1.90625 -0.640625q0.78125 -0.640625 0.84375 -1.671875l1.046875 0q-0.046875 0.90625 -0.578125 1.65625q-0.515625 0.734375 -1.375 1.15625q-0.859375 0.421875 -1.84375 0.421875q-1.9375 0 -3.078125 -1.34375q-1.125 -1.359375 -1.125 -3.640625l0 -0.328125q0 -1.453125 0.5 -2.5625q0.515625 -1.125 1.46875 -1.734375q0.953125 -0.609375 2.234375 -0.609375q1.609375 0 2.65625 0.96875q1.0625 0.953125 1.140625 2.53125l-1.046875 0q-0.078125 -1.15625 -0.84375 -1.859375q-0.75 -0.71875 -1.90625 -0.71875q-1.484375 0 -2.296875 1.0625q-0.8125 1.0625 -0.8125 2.984375l0 0.328125q0 1.890625 0.8125 2.953125q0.8125 1.046875 2.296875 1.046875zm9.78241 0.921875q-1.25 0 -2.265625 -0.625q-1.015625 -0.625 -1.59375 -1.71875q-0.5625 -1.109375 -0.5625 -2.484375l0 -0.390625q0 -1.421875 0.546875 -2.5625q0.5625 -1.140625 1.546875 -1.78125q0.984375 -0.65625 2.125 -0.65625q1.796875 0 2.84375 1.21875q1.0625 1.21875 1.0625 3.34375l0 0.609375l-7.03125 0l0 0.21875q0 1.671875 0.953125 2.796875q0.96875 1.109375 2.421875 1.109375q0.875 0 1.546875 -0.3125q0.671875 -0.328125 1.21875 -1.03125l0.6875 0.515625q-1.203125 1.75 -3.5 1.75zm-0.203125 -9.296875q-1.21875 0 -2.0625 0.90625q-0.84375 0.890625 -1.03125 2.421875l5.921875 0l0 -0.125q-0.046875 -1.421875 -0.8125 -2.3125q-0.765625 -0.890625 -2.015625 -0.890625zm11.934692 6.609375q0 -0.8125 -0.65625 -1.296875q-0.65625 -0.5 -1.96875 -0.78125q-1.3125 -0.28125 -2.03125 -0.640625q-0.71875 -0.359375 -1.078125 -0.875q-0.34375 -0.515625 -0.34375 -1.25q0 -1.171875 0.96875 -1.921875q0.984375 -0.765625 2.5 -0.765625q1.65625 0 2.640625 0.8125q1.0 0.8125 1.0 2.125l-1.09375 0q0 -0.875 -0.71875 -1.4375q-0.71875 -0.578125 -1.828125 -0.578125q-1.078125 0 -1.734375 0.484375q-0.640625 0.46875 -0.640625 1.234375q0 0.734375 0.53125 1.140625q0.546875 0.40625 1.984375 0.75q1.4375 0.328125 2.140625 0.71875q0.71875 0.375 1.0625 0.921875q0.359375 0.53125 0.359375 1.296875q0 1.25 -1.015625 2.0q-1.0 0.75 -2.625 0.75q-1.71875 0 -2.796875 -0.828125q-1.0625 -0.84375 -1.0625 -2.125l1.09375 0q0.0625 0.96875 0.796875 1.5q0.75 0.53125 1.96875 0.53125q1.140625 0 1.84375 -0.5q0.703125 -0.5 0.703125 -1.265625zm9.446533 0q0 -0.8125 -0.65625 -1.296875q-0.65625 -0.5 -1.96875 -0.78125q-1.3125 -0.28125 -2.03125 -0.640625q-0.71875 -0.359375 -1.078125 -0.875q-0.34375 -0.515625 -0.34375 -1.25q0 -1.171875 0.96875 -1.921875q0.984375 -0.765625 2.5 -0.765625q1.65625 0 2.640625 0.8125q1.0 0.8125 1.0 2.125l-1.09375 0q0 -0.875 -0.71875 -1.4375q-0.71875 -0.578125 -1.828125 -0.578125q-1.078125 0 -1.734375 0.484375q-0.640625 0.46875 -0.640625 1.234375q0 0.734375 0.53125 1.140625q0.546875 0.40625 1.984375 0.75q1.4375 0.328125 2.140625 0.71875q0.71875 0.375 1.0625 0.921875q0.359375 0.53125 0.359375 1.296875q0 1.25 -1.015625 2.0q-1.0 0.75 -2.625 0.75q-1.71875 0 -2.796875 -0.828125q-1.0625 -0.84375 -1.0625 -2.125l1.09375 0q0.0625 0.96875 0.796875 1.5q0.75 0.53125 1.96875 0.53125q1.140625 0 1.84375 -0.5q0.703125 -0.5 0.703125 -1.265625zm7.352844 2.6875q-1.25 0 -2.265625 -0.625q-1.015625 -0.625 -1.59375 -1.71875q-0.5625 -1.109375 -0.5625 -2.484375l0 -0.390625q0 -1.421875 0.546875 -2.5625q0.5625 -1.140625 1.546875 -1.78125q0.984375 -0.65625 2.125 -0.65625q1.796875 0 2.84375 1.21875q1.0625 1.21875 1.0625 3.34375l0 0.609375l-7.03125 0l0 0.21875q0 1.671875 0.953125 2.796875q0.96875 1.109375 2.421875 1.109375q0.875 0 1.546875 -0.3125q0.671875 -0.328125 1.21875 -1.03125l0.6875 0.515625q-1.203125 1.75 -3.5 1.75zm-0.203125 -9.296875q-1.21875 0 -2.0625 0.90625q-0.84375 0.890625 -1.03125 2.421875l5.921875 0l0 -0.125q-0.046875 -1.421875 -0.8125 -2.3125q-0.765625 -0.890625 -2.015625 -0.890625zm5.5909424 4.09375q0 -2.296875 1.015625 -3.65625q1.03125 -1.359375 2.796875 -1.359375q1.984375 0 3.03125 1.5625l0 -5.53125l1.09375 0l0 14.0l-1.03125 0l-0.03125 -1.3125q-1.046875 1.5 -3.09375 1.5q-1.703125 0 -2.75 -1.375q-1.03125 -1.375 -1.03125 -3.703125l0 -0.125zm1.109375 0.1875q0 1.890625 0.75 2.984375q0.75 1.078125 2.125 1.078125q2.015625 0 2.859375 -1.78125l0 -4.625q-0.84375 -1.921875 -2.84375 -1.921875q-1.375 0 -2.140625 1.078125q-0.75 1.078125 -0.75 3.1875zm21.996887 1.5625q0 -1.09375 -0.78125 -1.734375q-0.765625 -0.640625 -2.828125 -1.21875q-2.0625 -0.59375 -3.015625 -1.265625q-1.34375 -0.96875 -1.34375 -2.53125q0 -1.53125 1.25 -2.484375q1.25 -0.953125 3.203125 -0.953125q1.328125 0 2.359375 0.515625q1.046875 0.515625 1.625 1.421875q0.578125 0.90625 0.578125 2.03125l-1.140625 0q0 -1.359375 -0.9375 -2.171875q-0.921875 -0.828125 -2.484375 -0.828125q-1.515625 0 -2.421875 0.6875q-0.90625 0.671875 -0.90625 1.765625q0 1.0 0.8125 1.640625q0.8125 0.640625 2.59375 1.125q1.796875 0.484375 2.703125 1.015625q0.921875 0.515625 1.390625 1.25q0.46875 0.734375 0.46875 1.71875q0 1.5625 -1.25 2.515625q-1.25 0.953125 -3.3125 0.953125q-1.390625 0 -2.5625 -0.5q-1.171875 -0.5 -1.78125 -1.40625q-0.609375 -0.90625 -0.609375 -2.078125l1.125 0q0 1.40625 1.046875 2.21875q1.046875 0.8125 2.78125 0.8125q1.5625 0 2.5 -0.671875q0.9375 -0.6875 0.9375 -1.828125zm7.0966797 3.453125q-1.25 0 -2.265625 -0.625q-1.015625 -0.625 -1.59375 -1.71875q-0.5625 -1.109375 -0.5625 -2.484375l0 -0.390625q0 -1.421875 0.546875 -2.5625q0.5625 -1.140625 1.546875 -1.78125q0.984375 -0.65625 2.125 -0.65625q1.796875 0 2.84375 1.21875q1.0625 1.21875 1.0625 3.34375l0 0.609375l-7.03125 0l0 0.21875q0 1.671875 0.953125 2.796875q0.96875 1.109375 2.421875 1.109375q0.875 0 1.546875 -0.3125q0.671875 -0.328125 1.21875 -1.03125l0.6875 0.515625q-1.203125 1.75 -3.5 1.75zm-0.203125 -9.296875q-1.21875 0 -2.0625 0.90625q-0.84375 0.890625 -1.03125 2.421875l5.921875 0l0 -0.125q-0.046875 -1.421875 -0.8125 -2.3125q-0.765625 -0.890625 -2.015625 -0.890625zm7.7160034 -3.265625l0 2.515625l2.046875 0l0 0.890625l-2.046875 0l0 6.578125q0 0.8125 0.296875 1.21875q0.296875 0.390625 1.0 0.390625q0.265625 0 0.875 -0.078125l0.046875 0.890625q-0.421875 0.15625 -1.171875 0.15625q-1.109375 0 -1.625 -0.65625q-0.515625 -0.65625 -0.515625 -1.921875l0 -6.578125l-1.8125 0l0 -0.890625l1.8125 0l0 -2.515625l1.09375 0z" fill-rule="nonzero"/><path fill="#000000" fill-opacity="0.0" d="m477.99213 129.12599l-336.8819 131.96849" fill-rule="evenodd"/><path stroke="#000000" stroke-width="1.0" stroke-linejoin="round" stroke-linecap="butt" d="m477.99213 129.12599l-333.69092 130.71849" fill-rule="evenodd"/><path fill="#000000" stroke="#000000" stroke-width="1.0" stroke-linecap="butt" d="m144.30122 259.84448l0.6369171 -1.4573059l-2.4667206 2.1740723l3.287094 -0.0798645z" fill-rule="evenodd"/><path fill="#38761d" d="m466.32547 129.49344l0 0c0 -5.035797 4.082306 -9.118111 9.118103 -9.118111l0 0c2.418274 0 4.737488 0.9606552 6.4474792 2.6706314c1.7099609 1.7099762 2.6706238 4.0292053 2.6706238 6.4474792l0 0c0 5.035797 -4.082306 9.118103 -9.118103 9.118103l0 0c-5.035797 0 -9.118103 -4.082306 -9.118103 -9.118103z" fill-rule="evenodd"/><path stroke="#000000" stroke-width="1.0" stroke-linejoin="round" stroke-linecap="butt" d="m466.32547 129.49344l0 0c0 -5.035797 4.082306 -9.118111 9.118103 -9.118111l0 0c2.418274 0 4.737488 0.9606552 6.4474792 2.6706314c1.7099609 1.7099762 2.6706238 4.0292053 2.6706238 6.4474792l0 0c0 5.035797 -4.082306 9.118103 -9.118103 9.118103l0 0c-5.035797 0 -9.118103 -4.082306 -9.118103 -9.118103z" fill-rule="evenodd"/><path fill="#cfe2f3" d="m55.036747 245.38846l0 0c0 -5.035797 4.0823135 -9.118118 9.118107 -9.118118l0 0c2.418274 0 4.737503 0.96066284 6.4474792 2.670639c1.7099762 1.7099762 2.6706314 4.0292053 2.6706314 6.4474792l0 0c0 5.035782 -4.0823135 9.118103 -9.118111 9.118103l0 0c-5.0357933 0 -9.118107 -4.082321 -9.118107 -9.118103z" fill-rule="evenodd"/><path stroke="#000000" stroke-width="1.0" stroke-linejoin="round" stroke-linecap="butt" d="m55.036747 245.38846l0 0c0 -5.035797 4.0823135 -9.118118 9.118107 -9.118118l0 0c2.418274 0 4.737503 0.96066284 6.4474792 2.670639c1.7099762 1.7099762 2.6706314 4.0292053 2.6706314 6.4474792l0 0c0 5.035782 -4.0823135 9.118103 -9.118111 9.118103l0 0c-5.0357933 0 -9.118107 -4.082321 -9.118107 -9.118103z" fill-rule="evenodd"/><path fill="#e06666" d="m73.272964 340.1391l0 0c0 -5.035797 4.082321 -9.118103 9.118111 -9.118103l0 0c2.418274 0 4.737503 0.96066284 6.4474792 2.6706238c1.7099762 1.7099915 2.6706314 4.0292053 2.6706314 6.4474792l0 0c0 5.035797 -4.0823135 9.118134 -9.118111 9.118134l0 0c-5.0357895 0 -9.118111 -4.0823364 -9.118111 -9.118134z" fill-rule="evenodd"/><path stroke="#000000" stroke-width="1.0" stroke-linejoin="round" stroke-linecap="butt" d="m73.272964 340.1391l0 0c0 -5.035797 4.082321 -9.118103 9.118111 -9.118103l0 0c2.418274 0 4.737503 0.96066284 6.4474792 2.6706238c1.7099762 1.7099915 2.6706314 4.0292053 2.6706314 6.4474792l0 0c0 5.035797 -4.0823135 9.118134 -9.118111 9.118134l0 0c-5.0357895 0 -9.118111 -4.0823364 -9.118111 -9.118134z" fill-rule="evenodd"/><path fill="#cfe2f3" d="m151.56168 321.9029l0 0c0 -5.035797 4.082321 -9.118103 9.118118 -9.118103l0 0c2.418274 0 4.737503 0.9606323 6.4474792 2.6706238c1.7099762 1.7099609 2.6706238 4.0292053 2.6706238 6.4474792l0 0c0 5.035797 -4.082321 9.118103 -9.118103 9.118103l0 0c-5.035797 0 -9.118118 -4.082306 -9.118118 -9.118103z" fill-rule="evenodd"/><path stroke="#000000" stroke-width="1.0" stroke-linejoin="round" stroke-linecap="butt" d="m151.56168 321.9029l0 0c0 -5.035797 4.082321 -9.118103 9.118118 -9.118103l0 0c2.418274 0 4.737503 0.9606323 6.4474792 2.6706238c1.7099762 1.7099609 2.6706238 4.0292053 2.6706238 6.4474792l0 0c0 5.035797 -4.082321 9.118103 -9.118103 9.118103l0 0c-5.035797 0 -9.118118 -4.082306 -9.118118 -9.118103z" fill-rule="evenodd"/><path fill="#cfe2f3" d="m122.874016 219.01312l0 0c0 -5.035797 4.0823135 -9.118103 9.118111 -9.118103l0 0c2.418274 0 4.737503 0.9606476 6.4474792 2.6706238c1.7099762 1.7099762 2.6706238 4.0292053 2.6706238 6.4474792l0 0c0 5.035797 -4.082306 9.118118 -9.118103 9.118118l0 0c-5.035797 0 -9.118111 -4.082321 -9.118111 -9.118118z" fill-rule="evenodd"/><path stroke="#000000" stroke-width="1.0" stroke-linejoin="round" stroke-linecap="butt" d="m122.874016 219.01312l0 0c0 -5.035797 4.0823135 -9.118103 9.118111 -9.118103l0 0c2.418274 0 4.737503 0.9606476 6.4474792 2.6706238c1.7099762 1.7099762 2.6706238 4.0292053 2.6706238 6.4474792l0 0c0 5.035797 -4.082306 9.118118 -9.118103 9.118118l0 0c-5.035797 0 -9.118111 -4.082321 -9.118111 -9.118118z" fill-rule="evenodd"/><path fill="#93c47d" d="m469.5538 259.4672l0 0c0 -5.035797 4.082306 -9.118118 9.118103 -9.118118l0 0c2.418274 0 4.7375183 0.96066284 6.4474792 2.670639c1.7099915 1.7099762 2.6706543 4.0292053 2.6706543 6.4474792l0 0c0 5.035797 -4.0823364 9.118103 -9.118134 9.118103l0 0c-5.035797 0 -9.118103 -4.082306 -9.118103 -9.118103z" fill-rule="evenodd"/><path stroke="#000000" stroke-width="1.0" stroke-linejoin="round" stroke-linecap="butt" d="m469.5538 259.4672l0 0c0 -5.035797 4.082306 -9.118118 9.118103 -9.118118l0 0c2.418274 0 4.7375183 0.96066284 6.4474792 2.670639c1.7099915 1.7099762 2.6706543 4.0292053 2.6706543 6.4474792l0 0c0 5.035797 -4.0823364 9.118103 -9.118134 9.118103l0 0c-5.035797 0 -9.118103 -4.082306 -9.118103 -9.118103z" fill-rule="evenodd"/><path fill="#cfe2f3" d="m544.0945 86.95538l0 0c0 -5.035797 4.0823364 -9.118111 9.118103 -9.118111l0 0c2.418274 0 4.737488 0.9606552 6.44751 2.6706314c1.7099609 1.7099762 2.6705933 4.0292053 2.6705933 6.4474792l0 0c0 5.0357895 -4.0822754 9.118111 -9.118103 9.118111l0 0c-5.0357666 0 -9.118103 -4.082321 -9.118103 -9.118111z" fill-rule="evenodd"/><path stroke="#000000" stroke-width="1.0" stroke-linejoin="round" stroke-linecap="butt" d="m544.0945 86.95538l0 0c0 -5.035797 4.0823364 -9.118111 9.118103 -9.118111l0 0c2.418274 0 4.737488 0.9606552 6.44751 2.6706314c1.7099609 1.7099762 2.6705933 4.0292053 2.6705933 6.4474792l0 0c0 5.0357895 -4.0822754 9.118111 -9.118103 9.118111l0 0c-5.0357666 0 -9.118103 -4.082321 -9.118103 -9.118111z" fill-rule="evenodd"/><path fill="#93c47d" d="m494.7349 310.3622l0 0c0 -5.035797 4.0823364 -9.118134 9.118134 -9.118134l0 0c2.418274 0 4.737488 0.96066284 6.4474792 2.6706543c1.7099915 1.7099609 2.6706238 4.0292053 2.6706238 6.4474792l0 0c0 5.035797 -4.082306 9.118103 -9.118103 9.118103l0 0c-5.035797 0 -9.118134 -4.082306 -9.118134 -9.118103z" fill-rule="evenodd"/><path stroke="#000000" stroke-width="1.0" stroke-linejoin="round" stroke-linecap="butt" d="m494.7349 310.3622l0 0c0 -5.035797 4.0823364 -9.118134 9.118134 -9.118134l0 0c2.418274 0 4.737488 0.96066284 6.4474792 2.6706543c1.7099915 1.7099609 2.6706238 4.0292053 2.6706238 6.4474792l0 0c0 5.035797 -4.082306 9.118103 -9.118103 9.118103l0 0c-5.035797 0 -9.118134 -4.082306 -9.118134 -9.118103z" fill-rule="evenodd"/><path fill="#93c47d" d="m516.95276 281.8609l0 0c0 -5.035797 4.0823364 -9.118134 9.118103 -9.118134l0 0c2.418274 0 4.737488 0.96066284 6.44751 2.6706543c1.7099609 1.7099609 2.6705933 4.0292053 2.6705933 6.4474792l0 0c0 5.035797 -4.0822754 9.118103 -9.118103 9.118103l0 0c-5.0357666 0 -9.118103 -4.082306 -9.118103 -9.118103z" fill-rule="evenodd"/><path stroke="#000000" stroke-width="1.0" stroke-linejoin="round" stroke-linecap="butt" d="m516.95276 281.8609l0 0c0 -5.035797 4.0823364 -9.118134 9.118103 -9.118134l0 0c2.418274 0 4.737488 0.96066284 6.44751 2.6706543c1.7099609 1.7099609 2.6705933 4.0292053 2.6705933 6.4474792l0 0c0 5.035797 -4.0822754 9.118103 -9.118103 9.118103l0 0c-5.0357666 0 -9.118103 -4.082306 -9.118103 -9.118103z" fill-rule="evenodd"/><path fill="#cfe2f3" d="m595.0131 124.01575l0 0c0 -5.0357895 4.0823364 -9.118111 9.118103 -9.118111l0 0c2.418274 0 4.737488 0.9606552 6.44751 2.6706314c1.7099609 1.7099762 2.6705933 4.0292053 2.6705933 6.4474792l0 0c0 5.035797 -4.0822754 9.118118 -9.118103 9.118118l0 0c-5.0357666 0 -9.118103 -4.082321 -9.118103 -9.118118z" fill-rule="evenodd"/><path stroke="#000000" stroke-width="1.0" stroke-linejoin="round" stroke-linecap="butt" d="m595.0131 124.01575l0 0c0 -5.0357895 4.0823364 -9.118111 9.118103 -9.118111l0 0c2.418274 0 4.737488 0.9606552 6.44751 2.6706314c1.7099609 1.7099762 2.6705933 4.0292053 2.6705933 6.4474792l0 0c0 5.035797 -4.0822754 9.118118 -9.118103 9.118118l0 0c-5.0357666 0 -9.118103 -4.082321 -9.118103 -9.118118z" fill-rule="evenodd"/><path fill="#e69138" d="m546.16534 345.56955l0 0c0 -5.035797 4.0823364 -9.118103 9.118103 -9.118103l0 0c2.418274 0 4.737488 0.96066284 6.44751 2.6706238c1.7099609 1.7099915 2.6705933 4.0292053 2.6705933 6.4474792l0 0c0 5.035797 -4.0822754 9.118103 -9.118103 9.118103l0 0c-5.0357666 0 -9.118103 -4.082306 -9.118103 -9.118103z" fill-rule="evenodd"/><path stroke="#000000" stroke-width="1.0" stroke-linejoin="round" stroke-linecap="butt" d="m546.16534 345.56955l0 0c0 -5.035797 4.0823364 -9.118103 9.118103 -9.118103l0 0c2.418274 0 4.737488 0.96066284 6.44751 2.6706238c1.7099609 1.7099915 2.6705933 4.0292053 2.6705933 6.4474792l0 0c0 5.035797 -4.0822754 9.118103 -9.118103 9.118103l0 0c-5.0357666 0 -9.118103 -4.082306 -9.118103 -9.118103z" fill-rule="evenodd"/><path fill="#e69138" d="m571.52234 372.9134l0 0c0 -5.035797 4.0822754 -9.118103 9.118103 -9.118103l0 0c2.418274 0 4.737488 0.9606323 6.4474487 2.6706238c1.7099609 1.7099609 2.6706543 4.0292053 2.6706543 6.4474792l0 0c0 5.035797 -4.0823364 9.118103 -9.118103 9.118103l0 0c-5.0358276 0 -9.118103 -4.082306 -9.118103 -9.118103z" fill-rule="evenodd"/><path stroke="#000000" stroke-width="1.0" stroke-linejoin="round" stroke-linecap="butt" d="m571.52234 372.9134l0 0c0 -5.035797 4.0822754 -9.118103 9.118103 -9.118103l0 0c2.418274 0 4.737488 0.9606323 6.4474487 2.6706238c1.7099609 1.7099609 2.6706543 4.0292053 2.6706543 6.4474792l0 0c0 5.035797 -4.0823364 9.118103 -9.118103 9.118103l0 0c-5.0358276 0 -9.118103 -4.082306 -9.118103 -9.118103z" fill-rule="evenodd"/><path fill="#cfe2f3" d="m674.32544 129.49344l0 0c0 -5.035797 4.0823364 -9.118111 9.118103 -9.118111l0 0c2.418274 0 4.737549 0.9606552 6.44751 2.6706314c1.7099609 1.7099762 2.6706543 4.0292053 2.6706543 6.4474792l0 0c0 5.035797 -4.0823364 9.118103 -9.118164 9.118103l0 0c-5.0357666 0 -9.118103 -4.082306 -9.118103 -9.118103z" fill-rule="evenodd"/><path stroke="#000000" stroke-width="1.0" stroke-linejoin="round" stroke-linecap="butt" d="m674.32544 129.49344l0 0c0 -5.035797 4.0823364 -9.118111 9.118103 -9.118111l0 0c2.418274 0 4.737549 0.9606552 6.44751 2.6706314c1.7099609 1.7099762 2.6706543 4.0292053 2.6706543 6.4474792l0 0c0 5.035797 -4.0823364 9.118103 -9.118164 9.118103l0 0c-5.0357666 0 -9.118103 -4.082306 -9.118103 -9.118103z" fill-rule="evenodd"/><path fill="#cfe2f3" d="m692.5617 233.2231l0 0c0 -5.035797 4.0822754 -9.118118 9.118103 -9.118118l0 0c2.418274 0 4.737488 0.96066284 6.4474487 2.670639c1.7099609 1.7099762 2.6706543 4.0292053 2.6706543 6.4474792l0 0c0 5.035797 -4.0823364 9.118103 -9.118103 9.118103l0 0c-5.0358276 0 -9.118103 -4.082306 -9.118103 -9.118103z" fill-rule="evenodd"/><path stroke="#000000" stroke-width="1.0" stroke-linejoin="round" stroke-linecap="butt" d="m692.5617 233.2231l0 0c0 -5.035797 4.0822754 -9.118118 9.118103 -9.118118l0 0c2.418274 0 4.737488 0.96066284 6.4474487 2.670639c1.7099609 1.7099762 2.6706543 4.0292053 2.6706543 6.4474792l0 0c0 5.035797 -4.0823364 9.118103 -9.118103 9.118103l0 0c-5.0358276 0 -9.118103 -4.082306 -9.118103 -9.118103z" fill-rule="evenodd"/><path fill="#38761d" d="m122.874016 263.62466l0 0c0 -5.035797 4.0823135 -9.118103 9.118111 -9.118103l0 0c2.418274 0 4.737503 0.96066284 6.4474792 2.6706238c1.7099762 1.7099915 2.6706238 4.0292053 2.6706238 6.4474792l0 0c0 5.035797 -4.082306 9.118103 -9.118103 9.118103l0 0c-5.035797 0 -9.118111 -4.082306 -9.118111 -9.118103z" fill-rule="evenodd"/><path stroke="#000000" stroke-width="1.0" stroke-linejoin="round" stroke-linecap="butt" d="m122.874016 263.62466l0 0c0 -5.035797 4.0823135 -9.118103 9.118111 -9.118103l0 0c2.418274 0 4.737503 0.96066284 6.4474792 2.6706238c1.7099762 1.7099915 2.6706238 4.0292053 2.6706238 6.4474792l0 0c0 5.035797 -4.082306 9.118103 -9.118103 9.118103l0 0c-5.035797 0 -9.118111 -4.082306 -9.118111 -9.118103z" fill-rule="evenodd"/><path fill="#000000" fill-opacity="0.0" d="m196.80838 208.98732l174.74017 -67.023636l12.787384 33.35434l-174.74016 67.02362z" fill-rule="evenodd"/><path fill="#000000" d="m263.78128 205.44276q-0.16674805 0.69989014 -0.88082886 1.3252106q-0.7141113 0.6253357 -1.735321 1.0170288q-1.0503845 0.40289307 -2.0429382 0.21461487q-0.9925537 -0.18829346 -1.791565 -0.91937256q-0.79003906 -0.75128174 -1.2576904 -1.9274292l-0.42510986 -1.1088104q-0.71035767 -1.8528748 -0.18499756 -3.2760315q0.5253601 -1.4231567 2.0863647 -2.0218964q1.3713074 -0.5259857 2.471344 -0.14463806q1.1000366 0.3813324 1.724762 1.530716l-0.74401855 0.28538513q-0.54422 -0.8957672 -1.3616943 -1.1511993q-0.8230896 -0.27001953 -1.8297119 0.11607361q-1.2400208 0.4756317 -1.6282654 1.6453857q-0.3792572 1.1495514 0.23602295 2.7544098l0.39712524 1.0358582q0.3859253 1.0066833 1.023529 1.6658173q0.6465759 0.63894653 1.4506836 0.8158417q0.80410767 0.17687988 1.6356506 -0.14207458q0.9628601 -0.36930847 1.5310669 -0.9386902q0.37393188 -0.37771606 0.49209595 -0.7242584l-0.8725586 -2.2759705l-2.3779602 0.9120941l-0.24612427 -0.6419525l3.1219788 -1.197464l1.2081604 3.151352zm3.176117 -0.013320923l-0.72943115 0.27978516l-2.5226135 -6.579895l0.72943115 -0.27978516l2.5226135 6.579895zm-4.1104736 -8.146393q-0.078308105 -0.20425415 -0.0029296875 -0.4005127q0.0753479 -0.19624329 0.30877686 -0.28578186q0.23342896 -0.089523315 0.4206543 0.006011963q0.20181274 0.0899353 0.28012085 0.29418945q0.078308105 0.20425415 -0.011657715 0.4060974q-0.08093262 0.18167114 -0.31436157 0.27120972q-0.23342896 0.089523315 -0.41506958 0.008575439q-0.18722534 -0.09553528 -0.26553345 -0.29978943zm7.738983 5.59993l-0.13800049 -6.3398285l0.75860596 -0.29096985l0.05709839 7.5255585l-0.5835266 0.22383118l-4.988098 -5.6342316l0.74401855 -0.28536987l4.1499023 4.80101zm6.8327637 -1.3322144q-0.83154297 0.31895447 -1.6738281 0.17344666q-0.82769775 -0.15110779 -1.4922485 -0.74967957q-0.6645813 -0.59858704 -1.0113525 -1.5031433l-0.10067749 -0.26260376q-0.36358643 -0.9483185 -0.28970337 -1.846878q0.08843994 -0.9041443 0.5771179 -1.5936279q0.4887085 -0.6894989 1.2473145 -0.98046875q1.1962585 -0.45884705 2.2097473 0.08958435q1.0280762 0.5428314 1.5706177 1.9580078l0.15661621 0.4085083l-4.6975403 1.8018036l0.05593872 0.14588928q0.42507935 1.1088104 1.3522644 1.6066742q0.92715454 0.4978485 1.904602 0.12294006q0.5835266 -0.22381592 0.9429016 -0.59594727q0.36834717 -0.39230347 0.55407715 -0.9990692l0.5864868 0.17669678q-0.36050415 1.4603271 -1.892334 2.0478668zm-2.5084534 -6.1501923q-0.8169861 0.3133545 -1.151001 1.1443481q-0.32504272 0.8108063 -0.050231934 1.8768463l3.9389343 -1.5108337l-0.03353882 -0.08753967q-0.39276123 -0.93711853 -1.1326904 -1.339447q-0.7399292 -0.4023285 -1.5714722 -0.08337402zm4.517029 -2.3015442l0.45983887 1.1121979q0.1499939 -0.74365234 0.5667114 -1.2716675q0.43133545 -0.53359985 1.1023865 -0.79100037q1.0650024 -0.40847778 1.8049316 -0.006164551q0.7399292 0.4023285 1.2075806 1.5784912l1.6556091 4.3184967l-0.72943115 0.27978516l-1.6556091 -4.3184967q-0.34121704 -0.8899689 -0.88272095 -1.167572q-0.53253174 -0.2978058 -1.3348999 0.009963989q-0.67108154 0.2574005 -1.0340576 0.88194275q-0.34838867 0.61894226 -0.32232666 1.4289551l1.7283325 4.5081635l-0.72943115 0.27978516l-2.522583 -6.5798798l0.68566895 -0.2630005zm17.075134 -2.1648102q0.39105225 1.4565582 -0.18441772 2.5307617q-0.5664673 1.0540314 -1.96698 1.591217q-0.9920349 0.38049316 -1.9352112 0.1900177q-0.9342041 -0.21066284 -1.704071 -0.9529419q-0.755249 -0.747879 -1.1971436 -1.9004517l-0.441864 -1.1525726q-0.45306396 -1.1817627 -0.39135742 -2.242981q0.05609131 -1.0758209 0.6390991 -1.8684387q0.58303833 -0.7926178 1.604248 -1.1843109q1.4151001 -0.54278564 2.5285034 -0.08288574q1.1280212 0.45428467 1.7738953 1.74617l-0.75860596 0.29096985q-1.1385498 -2.1404724 -3.297699 -1.3123169q-1.210846 0.46444702 -1.5789185 1.6431732q-0.3736267 1.164154 0.23605347 2.7544098l0.4138794 1.0796356q0.5873108 1.5319061 1.6399536 2.1824493q1.0470581 0.63597107 2.2287292 0.18270874q1.1670837 -0.4476471 1.5526733 -1.2314758q0.38000488 -0.7984009 0.080596924 -1.972168l0.7586365 -0.29096985zm3.521881 1.8120422l-0.72943115 0.27978516l-3.5797424 -9.337326l0.72943115 -0.27978516l3.5797424 9.337326zm6.1152344 -2.3455658q-0.21960449 -0.2672119 -0.4837036 -0.8687897q-0.18911743 0.6415405 -0.68096924 1.1481628q-0.49746704 0.4920349 -1.1539612 0.74383545q-0.9482422 0.36372375 -1.7331543 0.062316895q-0.7849121 -0.3013916 -1.0981445 -1.1184082q-0.3635559 -0.9483185 0.21166992 -1.8048859q0.5842285 -0.87675476 2.013916 -1.4251251l1.3129883 -0.50361633l-0.2852478 -0.74406433q-0.27407837 -0.7148895 -0.86276245 -0.9409332q-0.5796814 -0.24623108 -1.4112549 0.07270813q-0.75860596 0.2909851 -1.1181641 0.88075256q-0.35061646 0.5695801 -0.13806152 1.1239777l-0.73501587 0.26519775q-0.29644775 -0.7732544 0.21484375 -1.6220245q0.5057068 -0.8633728 1.5706787 -1.2718506q1.1087341 -0.42526245 1.9485779 -0.11148071q0.84887695 0.29360962 1.2438049 1.2801056l1.1913757 3.1075745q0.36917114 0.9629059 0.7524109 1.3514252l0.027954102 0.07295227l-0.78778076 0.3021698zm-2.4772034 0.34770203q0.72943115 -0.27978516 1.164154 -0.84817505q0.4493103 -0.5739746 0.46798706 -1.267273l-0.55374146 -1.4443665l-1.2984009 0.49801636q-1.0739746 0.42866516 -1.535675 1.0576019q-0.46728516 0.61434937 -0.20999146 1.2854767q0.21255493 0.5543976 0.76086426 0.7624512q0.5483093 0.20806885 1.2048035 -0.04373169zm8.91156 -3.7695618q-0.29293823 1.200119 -1.7372131 1.7540894q-1.0503845 0.40289307 -1.8340759 0.017349243q-0.77471924 -0.40571594 -1.2479553 -1.5964661l-1.6444397 -4.289337l0.72943115 -0.2797699l1.6052856 4.187195q0.7215576 1.8820496 2.2387695 1.3001099q1.5755615 -0.6043396 1.4952393 -2.0796661l-1.8234253 -4.756195l0.72943115 -0.27978516l2.5226135 6.579895l-0.70025635 0.2685852l-0.33340454 -0.826004zm6.219574 -3.3562317q-0.20697021 -0.5398102 -0.7676697 -0.6929016q-0.5663147 -0.16769409 -1.5087585 -0.0070343018q-0.94802856 0.14607239 -1.5189514 0.0973053q-0.57650757 -0.06336975 -0.9385681 -0.30940247q-0.36767578 -0.26062012 -0.5578308 -0.7566681q-0.29644775 -0.77323914 0.14968872 -1.5300751q0.46072388 -0.7624512 1.4819336 -1.1541443q1.0941467 -0.41967773 1.9631653 -0.11706543q0.87805176 0.28240967 1.2136536 1.1577759l-0.72943115 0.27978516q-0.22375488 -0.58358765 -0.85058594 -0.7782593q-0.6324463 -0.20925903 -1.3618774 0.07052612q-0.71484375 0.27418518 -1.02948 0.763031q-0.3146057 0.48883057 -0.11883545 0.99946594q0.19018555 0.49604797 0.66116333 0.6333618q0.46542358 0.12272644 1.5031738 -0.0075683594q1.0467529 -0.15046692 1.6142578 -0.06690979q0.57650757 0.06335449 0.94976807 0.338562q0.36767578 0.26062012 0.5634155 0.7712555q0.31884766 0.831604 -0.16207886 1.5850525q-0.480896 0.7534485 -1.5604553 1.1675262q-1.1524963 0.44204712 -2.079895 0.16183472q-0.9273987 -0.2802124 -1.2518005 -1.1264038l0.72943115 -0.27978516q0.28985596 0.6251526 0.9201355 0.78504944q0.630249 0.15989685 1.4472046 -0.15345764q0.75860596 -0.29096985 1.0968018 -0.805603q0.3381958 -0.5146179 0.14242554 -1.0252533zm5.5885315 -0.08514404q-0.83154297 0.31895447 -1.6738281 0.17344666q-0.82769775 -0.15110779 -1.492279 -0.7496948q-0.6645508 -0.5985718 -1.0113525 -1.503128l-0.10067749 -0.26261902q-0.3635559 -0.9483185 -0.28970337 -1.8468628q0.08847046 -0.9041443 0.57714844 -1.5936432q0.48867798 -0.68948364 1.2473145 -0.98046875q1.1962585 -0.4588318 2.2097473 0.08958435q1.0280762 0.5428314 1.5706177 1.9580231l0.15661621 0.4085083l-4.6975403 1.8018036l0.05593872 0.14588928q0.42507935 1.1088104 1.3522339 1.6066589q0.92718506 0.49786377 1.9046326 0.12295532q0.5835266 -0.22383118 0.9428711 -0.59594727q0.3683777 -0.39231873 0.55410767 -0.9990692l0.5864868 0.17668152q-0.36050415 1.4603424 -1.892334 2.047882zm-2.5084534 -6.1502075q-0.8169861 0.31336975 -1.1510315 1.1443634q-0.32504272 0.8108063 -0.050201416 1.876831l3.9389343 -1.5108337l-0.03353882 -0.087524414q-0.39276123 -0.9371338 -1.1326904 -1.3394623q-0.7399292 -0.40231323 -1.5714722 -0.08337402z" fill-rule="nonzero"/><path fill="#000000" fill-opacity="0.0" d="m133.31233 265.16797l114.055115 9.380585l-77.51706 44.931763" fill-rule="evenodd"/><path stroke="#38761d" stroke-width="1.0" stroke-linejoin="round" stroke-linecap="butt" d="m133.31233 265.16797l114.055115 9.380585l-77.51706 44.931763" fill-rule="evenodd"/><path fill="#000000" fill-opacity="0.0" d="m247.36745 274.54855l110.104996 -11.850403l112.08136 -2.9632568" fill-rule="evenodd"/><path stroke="#38761d" stroke-width="1.0" stroke-linejoin="round" stroke-linecap="butt" d="m247.36745 274.54855l110.104996 -11.850403l108.65546 -2.8726807" fill-rule="evenodd"/><path fill="#38761d" stroke="#38761d" stroke-width="1.0" stroke-linecap="butt" d="m466.12793 259.82547l-1.0944824 1.1539307l3.05896 -1.2058411l-3.1184082 -1.0425415z" fill-rule="evenodd"/><path fill="#000000" fill-opacity="0.0" d="m355.99213 263.1916l138.74277 44.438324" fill-rule="evenodd"/><path stroke="#38761d" stroke-width="1.0" stroke-linejoin="round" stroke-linecap="butt" d="m355.99213 263.1916l135.479 43.392975" fill-rule="evenodd"/><path fill="#38761d" stroke="#38761d" stroke-width="1.0" stroke-linecap="butt" d="m491.47116 306.58456l-1.414032 0.7279663l3.285553 -0.12854004l-2.5994873 -2.0134583z" fill-rule="evenodd"/><path fill="#000000" fill-opacity="0.0" d="m357.47244 263.1916l159.48032 17.774292" fill-rule="evenodd"/><path stroke="#38761d" stroke-width="1.0" stroke-linejoin="round" stroke-linecap="butt" d="m357.47244 263.1916l156.07431 17.394684" fill-rule="evenodd"/><path fill="#38761d" stroke="#38761d" stroke-width="1.0" stroke-linecap="butt" d="m513.54675 280.58627l-1.2422485 0.993103l3.1953735 -0.77542114l-2.946228 -1.4598999z" fill-rule="evenodd"/><path fill="#000000" fill-opacity="0.0" d="m138.74278 270.59842l96.28346 83.433075" fill-rule="evenodd"/><path stroke="#b45f06" stroke-width="1.0" stroke-linejoin="round" stroke-linecap="butt" d="m138.74278 270.59842l96.28346 83.433075" fill-rule="evenodd"/><path fill="#000000" fill-opacity="0.0" d="m91.509186 340.1391l143.52756 13.921265" fill-rule="evenodd"/><path stroke="#b45f06" stroke-width="1.0" stroke-linejoin="round" stroke-linecap="butt" d="m91.509186 340.1391l143.52756 13.921265" fill-rule="evenodd"/><path fill="#000000" fill-opacity="0.0" d="m234.53018 354.042l156.0315 -2.9606323" fill-rule="evenodd"/><path stroke="#b45f06" stroke-width="1.0" stroke-linejoin="round" stroke-linecap="butt" d="m234.53018 354.042l156.0315 -2.9606323" fill-rule="evenodd"/><path fill="#000000" fill-opacity="0.0" d="m386.35434 351.5853l159.811 -6.015747" fill-rule="evenodd"/><path stroke="#b45f06" stroke-width="1.0" stroke-linejoin="round" stroke-linecap="butt" d="m386.35434 351.5853l156.38632 -5.886841" fill-rule="evenodd"/><path fill="#b45f06" stroke="#b45f06" stroke-width="1.0" stroke-linecap="butt" d="m542.7407 345.69846l-1.081543 1.1661072l3.045288 -1.2400208l-3.1298828 -1.0075684z" fill-rule="evenodd"/><path fill="#000000" fill-opacity="0.0" d="m390.54593 351.0866l180.97641 21.826782" fill-rule="evenodd"/><path stroke="#b45f06" stroke-width="1.0" stroke-linejoin="round" stroke-linecap="butt" d="m390.54593 351.0866l177.57394 21.416412" fill-rule="evenodd"/><path fill="#b45f06" stroke="#b45f06" stroke-width="1.0" stroke-linecap="butt" d="m568.1199 372.50302l-1.2511597 0.98184204l3.2022095 -0.746521l-2.9328613 -1.4864502z" fill-rule="evenodd"/><path fill="#000000" fill-opacity="0.0" d="m223.27025 286.58298l172.7559 -15.653534l5.795288 63.212585l-172.75592 15.653564z" fill-rule="evenodd"/><path fill="#000000" d="m236.05208 306.02887l-0.7158203 0.06488037l-0.7788696 -8.495636l0.7158203 -0.06484985l0.7788696 8.495605zm2.227707 -6.571594l0.13098145 1.0863647q0.30369568 -0.62368774 0.8056793 -0.96728516q0.5005493 -0.35913086 1.1385651 -0.41693115q1.0114746 -0.09164429 1.5622101 0.43893433q0.5493164 0.51504517 0.6704407 1.6650391l0.37945557 4.138916l-0.70025635 0.063446045l-0.38087463 -4.1544495q-0.077041626 -0.8402405 -0.47203064 -1.2123718q-0.39642334 -0.3876648 -1.1744995 -0.3171692q-0.6380005 0.057800293 -1.098877 0.5074768q-0.4608612 0.4496765 -0.64707947 1.1568604l0.39656067 4.3256226l-0.6846924 0.062042236l-0.5791626 -6.3172607l0.6535797 -0.05923462zm6.988449 5.736511l-0.52638245 -5.7415466l-1.0426025 0.09448242l-0.05278015 -0.5757141l1.0426025 -0.09448242l-0.06990051 -0.76242065q-0.08843994 -0.96469116 0.34687805 -1.5218811q0.4494629 -0.5741577 1.3364563 -0.654541q0.38902283 -0.035247803 0.7399292 0.02709961l0.007522583 0.5954895q-0.3027954 -0.050994873 -0.6451416 -0.019989014q-0.5757599 0.05218506 -0.86831665 0.4552307q-0.27841187 0.38607788 -0.2184906 1.0395813l0.07131958 0.7779846l1.5094452 -0.13677979l0.05278015 0.5757141l-1.5094452 0.13677979l0.52638245 5.7415466l-0.70025635 0.063446045zm5.7729645 -0.397583q-0.80918884 0.07333374 -1.4998474 -0.27200317q-0.69065857 -0.3453369 -1.1127625 -1.013092q-0.42352295 -0.6833191 -0.50341797 -1.554657l-0.022827148 -0.2489624q-0.08415222 -0.9180298 0.19114685 -1.6803589q0.29086304 -0.7637329 0.8762207 -1.2247009q0.59950256 -0.47790527 1.3308716 -0.54418945q1.151535 -0.1043396 1.8934174 0.62857056q0.7560272 0.7159729 0.88012695 2.0696716l0.03565979 0.38897705l-4.5127563 0.40890503l0.012832642 0.14004517q0.09843445 1.0736084 0.786499 1.7329712q0.68807983 0.6593323 1.6217499 0.57473755q0.5602112 -0.050750732 0.96180725 -0.29110718q0.41575623 -0.25732422 0.71673584 -0.739563l0.4670868 0.30282593q-0.65979004 1.1893921 -2.1225433 1.3219299zm-0.68640137 -5.946686q-0.7780609 0.070495605 -1.269928 0.69555664q-0.49186707 0.62506104 -0.5109253 1.6152039l3.7813873 -0.34265137l-0.0071411133 -0.07778931q-0.11528015 -0.91519165 -0.66459656 -1.4302368q-0.5351715 -0.5319824 -1.3287964 -0.460083zm6.790802 -0.50549316q-0.22070312 -0.011383057 -0.46969604 0.011169434q-0.65356445 0.05923462 -1.0706177 0.47354126q-0.41845703 0.3987732 -0.55799866 1.1017456l0.397995 4.341156l-0.6846924 0.062042236l-0.5791626 -6.3172607l0.6691437 -0.060638428l0.10827637 1.0099792q0.45750427 -1.171051 1.6868439 -1.2824402q0.28009033 -0.025390625 0.45840454 0.036895752l0.041503906 0.6238098zm3.9792786 5.538513q-0.8091736 0.07330322 -1.4998474 -0.2720337q-0.6906433 -0.3453369 -1.1127625 -1.013092q-0.42352295 -0.6833191 -0.50341797 -1.554657l-0.02279663 -0.2489624q-0.08416748 -0.9180298 0.19113159 -1.6803589q0.29086304 -0.7637329 0.8762207 -1.2246704q0.5994873 -0.4779358 1.3308716 -0.54422q1.1515198 -0.1043396 1.8934021 0.6286011q0.7560425 0.7159424 0.88012695 2.069641l0.03567505 0.38897705l-4.5127563 0.40890503l0.0128479 0.14004517q0.09841919 1.0736389 0.786499 1.7329712q0.6880493 0.6593628 1.6217346 0.57473755q0.5602112 -0.050750732 0.9618225 -0.29110718q0.41574097 -0.2572937 0.7167053 -0.739563l0.46710205 0.30282593q-0.65979004 1.1893921 -2.1225586 1.3219604zm-0.68640137 -5.9467163q-0.77804565 0.070495605 -1.269928 0.69555664q-0.4918518 0.62506104 -0.5109253 1.6152039l3.7814026 -0.34262085l-0.0071411133 -0.077819824q-0.11529541 -0.91519165 -0.6646118 -1.4302368q-0.53515625 -0.5319824 -1.3287964 -0.460083zm4.4802246 -0.89230347l0.13098145 1.0863647q0.30368042 -0.62371826 0.80566406 -0.96728516q0.5005493 -0.35913086 1.1385803 -0.41693115q1.0114746 -0.091674805 1.5622253 0.43893433q0.5492859 0.51501465 0.67041016 1.6650391l0.37945557 4.1388855l-0.70025635 0.063446045l-0.38085938 -4.1544495q-0.07702637 -0.84020996 -0.4720459 -1.2123413q-0.39642334 -0.3876953 -1.174469 -0.3171997q-0.638031 0.05783081 -1.0989075 0.5075073q-0.46084595 0.4496765 -0.6470642 1.1568604l0.39657593 4.325592l-0.6847229 0.062042236l-0.5791321 -6.3172607l0.65356445 -0.0592041zm8.781891 5.1033325q0.7157898 -0.06484985 1.1766663 -0.51452637q0.45944214 -0.46524048 0.43066406 -1.121582l0.6846924 -0.062042236q0.02166748 0.57855225 -0.27645874 1.091919q-0.28399658 0.49639893 -0.8185425 0.82724q-0.52038574 0.3138733 -1.1428223 0.37026978q-1.2449036 0.11279297 -2.0561829 -0.69229126q-0.8112488 -0.8050842 -0.9439087 -2.2521362l-0.019989014 -0.21783447q-0.08557129 -0.93356323 0.17559814 -1.6789246q0.26116943 -0.7453613 0.83239746 -1.1893616q0.5867615 -0.44537354 1.3959656 -0.5187073q1.0426025 -0.09448242 1.7687988 0.46728516q0.7403259 0.5447998 0.8797302 1.5519409l-0.6846924 0.062042236q-0.11517334 -0.74264526 -0.638916 -1.1501465q-0.5237732 -0.40753174 -1.2707214 -0.33984375q-0.94924927 0.085998535 -1.4155579 0.818573q-0.45074463 0.73117065 -0.3380432 1.9603882l0.01852417 0.20227051q0.11126709 1.2136536 0.68756104 1.8517456q0.5904236 0.6211548 1.5552368 0.5337219zm6.3195496 0.02355957q-0.8092041 0.07333374 -1.4998474 -0.27200317q-0.6906738 -0.3453369 -1.1127625 -1.013092q-0.42352295 -0.6833191 -0.50341797 -1.5546875l-0.022827148 -0.24893188q-0.08416748 -0.9180298 0.19113159 -1.6803589q0.29086304 -0.7637329 0.8762207 -1.2247009q0.5995178 -0.4779358 1.3308716 -0.54418945q1.1515503 -0.1043396 1.8934326 0.62857056q0.75601196 0.7159424 0.88012695 2.069641l0.03567505 0.38900757l-4.512787 0.40890503l0.0128479 0.14004517q0.09841919 1.0736084 0.786499 1.7329712q0.68807983 0.6593323 1.6217346 0.57473755q0.5602112 -0.050750732 0.9618225 -0.29110718q0.41574097 -0.25732422 0.71673584 -0.739563l0.46707153 0.30282593q-0.65979004 1.1893921 -2.122528 1.3219299zm-0.68640137 -5.946686q-0.7780762 0.070495605 -1.269928 0.69555664q-0.49188232 0.62506104 -0.5109253 1.6152039l3.781372 -0.34265137l-0.0071105957 -0.07778931q-0.11529541 -0.91522217 -0.6646118 -1.4302368q-0.53518677 -0.53201294 -1.3287964 -0.460083zm8.040253 3.5388794q-0.04852295 -0.52905273 -0.49719238 -0.80215454q-0.44869995 -0.27313232 -1.3046875 -0.36816406q-0.8574219 -0.110565186 -1.3456421 -0.30166626q-0.48825073 -0.19110107 -0.75161743 -0.4967041q-0.24783325 -0.30700684 -0.29205322 -0.7893677q-0.06845093 -0.7468567 0.5097656 -1.285614q0.5937805 -0.54016113 1.5585938 -0.627594q1.0581665 -0.09585571 1.7446594 0.3753357q0.6850891 0.45568848 0.7621155 1.2958984l-0.70025635 0.063446045q-0.051330566 -0.56015015 -0.5509949 -0.8757019q-0.48550415 -0.33255005 -1.2013245 -0.2677002q-0.6846924 0.062042236 -1.0763245 0.41131592q-0.3930359 0.33370972 -0.3473816 0.831604q0.042785645 0.46679688 0.4093933 0.70028687q0.3821411 0.23208618 1.320221 0.36672974q0.936676 0.11911011 1.4107666 0.32714844q0.48965454 0.20666504 0.7388916 0.52923584q0.26480103 0.321167 0.31045532 0.8190918q0.072753906 0.7935486 -0.5365906 1.3351135q-0.5937805 0.54016113 -1.636383 0.63464355q-1.1048584 0.100097656 -1.8380432 -0.36688232q-0.73464966 -0.48254395 -0.8102417 -1.3072205l0.70025635 -0.063446045q0.103759766 0.61816406 0.6019592 0.91815186q0.51379395 0.2986145 1.2918396 0.2281189q0.7313843 -0.06628418 1.15271 -0.43392944q0.42132568 -0.36764526 0.3771057 -0.8499756zm10.112061 -2.4224243q0.13552856 1.4781799 -0.4381714 2.4087524q-0.57366943 0.9305725 -1.6785278 1.0306702q-1.3071289 0.11843872 -2.08313 -0.81533813l0.04876709 0.874176l-0.65356445 0.0592041l-0.8216858 -8.962402l0.70025635 -0.06347656l0.32666016 3.563202q0.5750122 -1.0875854 1.8821411 -1.2060242q1.1204224 -0.101501465 1.8368835 0.69647217q0.73202515 0.7965393 0.87039185 2.3058472l0.009979248 0.10891724zm-0.7116394 -0.061035156q-0.11413574 -1.2447815 -0.65786743 -1.8701172q-0.545166 -0.6409302 -1.4321594 -0.5605469q-0.6691284 0.06060791 -1.1060181 0.4296875q-0.43688965 0.36904907 -0.6118164 1.0281372l0.26104736 2.8474426q0.6375122 1.134613 1.9602051 1.01474q0.87142944 -0.078948975 1.2924805 -0.79174805q0.41964722 -0.7283325 0.29412842 -2.0975952zm5.0003357 2.9200745q-0.8091736 0.07330322 -1.4998474 -0.2720337q-0.6906433 -0.3453369 -1.1127625 -1.013092q-0.42352295 -0.6833191 -0.50338745 -1.554657l-0.022827148 -0.2489624q-0.08416748 -0.9180298 0.19113159 -1.6803589q0.29086304 -0.7637329 0.8762207 -1.2246704q0.5994873 -0.4779358 1.3308716 -0.54418945q1.1515198 -0.10437012 1.8934326 0.62857056q0.75601196 0.7159424 0.88012695 2.069641l0.03564453 0.38897705l-4.5127563 0.40890503l0.0128479 0.14004517q0.09841919 1.0736389 0.786499 1.7329712q0.6880493 0.6593628 1.6217346 0.57473755q0.5602112 -0.050750732 0.9618225 -0.29110718q0.41574097 -0.2572937 0.7167053 -0.739563l0.46710205 0.30282593q-0.65979004 1.1893921 -2.1225586 1.3219604zm-0.68640137 -5.9467163q-0.77804565 0.070495605 -1.269928 0.69555664q-0.4918518 0.62506104 -0.5109253 1.6152039l3.7814026 -0.34262085l-0.0071411133 -0.077819824q-0.11529541 -0.91519165 -0.6645813 -1.4302368q-0.53518677 -0.5319824 -1.3288269 -0.460083zm4.752014 -2.548584l0.14834595 1.6181946l1.3071594 -0.11843872l0.052764893 0.5757141l-1.3071289 0.11843872l0.38516235 4.2011414q0.04849243 0.5290222 0.25949097 0.77664185q0.22509766 0.23062134 0.66082764 0.19113159q0.1711731 -0.01550293 0.57006836 -0.1144104l0.06832886 0.5743103q-0.25454712 0.13287354 -0.7369385 0.17660522q-0.7158203 0.06484985 -1.0811462 -0.32565308q-0.3652954 -0.39050293 -0.43945312 -1.1996155l-0.38659668 -4.2167053l-1.1515198 0.10437012l-0.05279541 -0.5757141l1.1515198 -0.1043396l-0.14834595 -1.6182251l0.70025635 -0.063446045zm4.8703003 6.101013l0.14187622 0.52056885l0.08868408 -0.57284546l1.0813599 -4.9772644l0.5913391 -0.053588867l1.948822 4.6556396l0.21694946 0.65496826l0.082977295 -0.6350708l0.8479309 -4.9561157l0.7158203 -0.06488037l-1.2570496 6.4836426l-0.5913391 0.053588867l-2.0776978 -4.8635864l-0.109191895 -0.3352661l-0.04498291 0.3649292l-1.129364 5.138489l-0.60687256 0.054992676l-2.3998413 -6.1522827l0.7158203 -0.06484985l1.7847595 4.748932zm10.087738 0.6705322q-0.8092041 0.07333374 -1.4998474 -0.27200317q-0.6906738 -0.3453369 -1.1127625 -1.013092q-0.42355347 -0.6833191 -0.50341797 -1.5546875l-0.022827148 -0.24893188q-0.08416748 -0.9180298 0.19113159 -1.6803589q0.29086304 -0.7637329 0.8762207 -1.2247009q0.5994873 -0.4779358 1.3308716 -0.54418945q1.1515503 -0.1043396 1.8934326 0.62857056q0.75601196 0.7159424 0.88012695 2.069641l0.03564453 0.38900757l-4.5127563 0.40890503l0.0128479 0.14001465q0.09841919 1.0736389 0.786499 1.7329712q0.6880493 0.6593628 1.6217346 0.57476807q0.5602112 -0.05078125 0.9618225 -0.29110718q0.41574097 -0.25732422 0.7167053 -0.739563l0.46710205 0.30282593q-0.65979004 1.1893921 -2.122528 1.3219299zm-0.68640137 -5.946686q-0.7780762 0.070495605 -1.269928 0.69555664q-0.49188232 0.62506104 -0.5109253 1.6152039l3.781372 -0.34265137l-0.0071411133 -0.07778931q-0.11526489 -0.91522217 -0.6645813 -1.4302368q-0.53518677 -0.53201294 -1.3287964 -0.460083zm6.860321 5.387268q-0.8092041 0.07330322 -1.4998474 -0.2720337q-0.6906738 -0.3453064 -1.1127625 -1.013092q-0.42352295 -0.6833191 -0.50341797 -1.554657l-0.022827148 -0.2489624q-0.08416748 -0.91799927 0.19113159 -1.6803284q0.29086304 -0.7637634 0.8762207 -1.2247009q0.5995178 -0.4779358 1.3308716 -0.54418945q1.1515503 -0.1043396 1.8934326 0.62857056q0.75601196 0.7159424 0.88012695 2.069641l0.03567505 0.38897705l-4.512787 0.40890503l0.0128479 0.14004517q0.09841919 1.0736389 0.786499 1.7329712q0.68807983 0.6593628 1.6217346 0.57476807q0.5602112 -0.05078125 0.9618225 -0.29110718q0.41574097 -0.25732422 0.71673584 -0.7395935l0.46707153 0.30285645q-0.65979004 1.1893921 -2.122528 1.3219299zm-0.68640137 -5.9467163q-0.7780762 0.07052612 -1.269928 0.69558716q-0.49188232 0.62506104 -0.5109253 1.6151733l3.781372 -0.34262085l-0.0071105957 -0.07778931q-0.11529541 -0.91522217 -0.6646118 -1.4302368q-0.53518677 -0.53201294 -1.3287964 -0.46011353zm4.480194 -0.89230347l0.13098145 1.0863647q0.30371094 -0.62368774 0.8056946 -0.96728516q0.5005493 -0.35913086 1.1385498 -0.41693115q1.0114746 -0.091674805 1.5622253 0.43893433q0.5493164 0.51501465 0.6704407 1.6650391l0.37945557 4.1388855l-0.70025635 0.063446045l-0.3808899 -4.1544495q-0.07702637 -0.84020996 -0.47201538 -1.2123413q-0.39642334 -0.3876953 -1.1744995 -0.3171692q-0.6380005 0.057800293 -1.098877 0.5074768q-0.46087646 0.4496765 -0.6470947 1.1568604l0.39657593 4.3256226l-0.6846924 0.062042236l-0.5791626 -6.3172607l0.65356445 -0.05923462zm8.821167 2.322815q-0.13549805 -1.4781799 0.4396057 -2.3931885q0.57369995 -0.930542 1.6940918 -1.032074q1.2915955 -0.11703491 2.0548706 0.8492737l-0.037475586 -0.9222412l0.65356445 -0.05923462l0.567749 6.1927795q0.11126709 1.2136536 -0.5078125 1.9914551q-0.6190796 0.7778015 -1.7861633 0.8835449q-0.6691284 0.060638428 -1.2875671 -0.181427q-0.6184387 -0.24206543 -1.0219727 -0.70755005l0.36605835 -0.4567566q0.81555176 0.8517456 1.8425903 0.7586975q0.87142944 -0.07897949 1.3053284 -0.6517029q0.45089722 -0.55859375 0.3822937 -1.4780273l-0.072753906 -0.7935486q-0.5821228 1.0097656 -1.8581543 1.1253967q-1.1048279 0.100097656 -1.8538513 -0.7106018q-0.7348938 -0.82769775 -0.8718262 -2.3214417l-0.008575439 -0.09335327zm0.7116699 0.061035156q0.11126709 1.2136536 0.65786743 1.8701477q0.545166 0.64089966 1.4321594 0.5605469q1.291565 -0.11703491 1.7150879 -1.3164062l-0.26818848 -2.925232q-0.30459595 -0.58425903 -0.7999573 -0.8531494q-0.4812317 -0.28588867 -1.1192627 -0.22805786q-0.8869934 0.08035278 -1.3207397 0.8256836q-0.41964722 0.7283325 -0.29696655 2.0664673zm7.270874 2.4632874l-0.70025635 0.063446045l-0.5791626 -6.3172607l0.70025635 -0.063446045l0.5791626 6.3172607zm-1.5708008 -8.063019q-0.018554688 -0.20227051 0.09310913 -0.35360718q0.1116333 -0.15130615 0.3294983 -0.17105103q0.23342896 -0.021148682 0.37075806 0.10760498q0.15289307 0.12734985 0.17141724 0.32962036q0.018554688 0.20230103 -0.10864258 0.355011q-0.113098145 0.1357727 -0.34649658 0.15692139q-0.21786499 0.019744873 -0.35375977 -0.09347534q-0.1373291 -0.12875366 -0.15588379 -0.33102417zm5.343506 6.7484436l1.4233093 -5.5259705l0.7158203 -0.06484985l-1.7705994 6.5301514l-0.5602112 0.05078125l-2.960022 -6.101532l0.7158203 -0.06488037l2.4358826 5.1763zm6.2543335 0.53152466q-0.8092041 0.07333374 -1.4998474 -0.27200317q-0.6906738 -0.3453369 -1.1127625 -1.013092q-0.42355347 -0.6833191 -0.50341797 -1.554657l-0.022827148 -0.2489624q-0.08416748 -0.9180298 0.19113159 -1.6803589q0.29086304 -0.7637329 0.8762207 -1.2247009q0.5994873 -0.47790527 1.3308716 -0.54418945q1.1515503 -0.1043396 1.8934326 0.62857056q0.75601196 0.7159729 0.88012695 2.0696716l0.03564453 0.38897705l-4.5127563 0.40890503l0.0128479 0.14004517q0.09841919 1.0736084 0.786499 1.7329712q0.68807983 0.6593323 1.6217346 0.57473755q0.5602112 -0.050750732 0.9618225 -0.29110718q0.41574097 -0.25732422 0.7167053 -0.739563l0.46710205 0.30282593q-0.65979004 1.1893921 -2.122528 1.3219299zm-0.68640137 -5.946686q-0.7780762 0.070495605 -1.269928 0.69555664q-0.49188232 0.62506104 -0.5109253 1.6152039l3.781372 -0.34262085l-0.0071411133 -0.077819824q-0.11526489 -0.91519165 -0.6645813 -1.4302368q-0.53518677 -0.5319824 -1.3287964 -0.460083zm4.480194 -0.89230347l0.13098145 1.0863647q0.30371094 -0.62371826 0.8056946 -0.96728516q0.5005493 -0.35913086 1.1385498 -0.41696167q1.0114746 -0.09164429 1.5622253 0.43896484q0.5493164 0.51501465 0.6704407 1.6650391l0.37945557 4.1388855l-0.70025635 0.063446045l-0.3808899 -4.1544495q-0.07702637 -0.8402405 -0.47201538 -1.2123413q-0.39642334 -0.3876953 -1.1744995 -0.3171997q-0.6380005 0.05783081 -1.098877 0.5075073q-0.46087646 0.449646 -0.6470947 1.1568604l0.39657593 4.325592l-0.6846924 0.062042236l-0.5791626 -6.3172607l0.65356445 -0.0592041z" fill-rule="nonzero"/><path fill="#000000" d="m238.6311 319.7835q0.7158203 -0.06484985 1.1766815 -0.51452637q0.45944214 -0.46524048 0.4306488 -1.1215515l0.68470764 -0.062042236q0.021652222 0.5785217 -0.276474 1.0918884q-0.28399658 0.49639893 -0.81851196 0.82724q-0.520401 0.3138733 -1.1428528 0.37026978q-1.2449036 0.11279297 -2.0561523 -0.69226074q-0.81126404 -0.8050842 -0.9439392 -2.2521362l-0.019973755 -0.21783447q-0.08558655 -0.93359375 0.17558289 -1.6789551q0.26116943 -0.7453613 0.83239746 -1.1893616q0.58677673 -0.44537354 1.3959656 -0.5187073q1.0426025 -0.094451904 1.7687988 0.46728516q0.7403259 0.5447998 0.8797302 1.5519409l-0.6846924 0.062042236q-0.11515808 -0.74261475 -0.638916 -1.1501465q-0.5237732 -0.40753174 -1.2707062 -0.33984375q-0.949234 0.085998535 -1.4155579 0.818573q-0.4507599 0.73117065 -0.33805847 1.9603882l0.018539429 0.20227051q0.11126709 1.2136536 0.68756104 1.8517761q0.5904236 0.62112427 1.5552216 0.5336914zm4.6430817 0.049957275l-0.70025635 0.063446045l-0.82167053 -8.962402l0.70025635 -0.063446045l0.82167053 8.962402zm5.884094 -0.5331421q-0.1360321 -0.2857666 -0.22135925 -0.87423706q-0.3292389 0.51620483 -0.8807678 0.83288574q-0.5359497 0.3152771 -1.1739655 0.3730774q-0.9025421 0.08178711 -1.5098267 -0.3809204q-0.60728455 -0.46270752 -0.6786041 -1.2406921q-0.08416748 -0.9180298 0.62983704 -1.5161438q0.7125702 -0.6137085 2.0819702 -0.73776245l1.2760162 -0.1156311l-0.06561279 -0.7157593q-0.06277466 -0.68463135 -0.51716614 -1.019989q-0.45581055 -0.35092163 -1.2494354 -0.27902222q-0.7313843 0.06628418 -1.1795349 0.48342896q-0.4481659 0.41714478 -0.40109253 0.930603l-0.70025635 0.06347656q-0.068481445 -0.7468872 0.58184814 -1.3549194q0.6489105 -0.6235962 1.6759491 -0.7166748q1.0581665 -0.09588623 1.713562 0.37817383q0.65538025 0.47402954 0.75653076 1.4062195l0.27389526 2.9874573q0.08416748 0.9180298 0.32781982 1.3509216l0.0071411133 0.077819824l-0.74694824 0.06768799zm-2.2397766 -0.29910278q0.70025635 -0.06347656 1.2135162 -0.45513916q0.52882385 -0.3930664 0.7264404 -0.97576904l-0.12695312 -1.3848267l-1.2604675 0.114227295q-1.0426025 0.094451904 -1.5996857 0.5214844q-0.5415344 0.42559814 -0.48161316 1.0791016q0.04849243 0.5290222 0.4703369 0.85165405q0.42041016 0.30706787 1.0584259 0.24926758zm8.646347 -1.081543q-0.55384827 0.9758301 -1.938797 1.1013184q-1.0114899 0.09164429 -1.5947723 -0.45169067q-0.56773376 -0.54473877 -0.68885803 -1.6947327l-0.3765869 -4.107788l0.70025635 -0.063446045l0.36946106 4.0299683q0.16404724 1.7893677 1.6112366 1.6582336q1.5250092 -0.1381836 1.8154755 -1.4196167l-0.41938782 -4.5745544l0.70025635 -0.063446045l0.5791626 6.3172607l-0.6846924 0.062042236l-0.072753906 -0.7935486zm6.2106323 -1.3786011q-0.04852295 -0.5290222 -0.49719238 -0.80215454q-0.44869995 -0.2731018 -1.3046875 -0.36813354q-0.8574219 -0.110565186 -1.3456726 -0.30166626q-0.4882202 -0.19110107 -0.7515869 -0.4967041q-0.24783325 -0.30700684 -0.29205322 -0.7893677q-0.06845093 -0.7468567 0.5097656 -1.285614q0.5937805 -0.54016113 1.5585938 -0.627594q1.0581665 -0.09588623 1.7446594 0.3753357q0.6850891 0.45565796 0.7621155 1.2958984l-0.70025635 0.063446045q-0.051330566 -0.56015015 -0.5509949 -0.8757324q-0.48550415 -0.33255005 -1.2013245 -0.26766968q-0.6846924 0.062042236 -1.0763245 0.41131592q-0.3930359 0.3336792 -0.3474121 0.831604q0.042816162 0.46679688 0.4093933 0.70028687q0.38217163 0.23208618 1.3202515 0.36672974q0.936676 0.11907959 1.4107666 0.32714844q0.48965454 0.20666504 0.7388916 0.52923584q0.26480103 0.321167 0.31045532 0.8190613q0.072753906 0.7935486 -0.5365906 1.335144q-0.5937805 0.54016113 -1.636383 0.63461304q-1.1048584 0.100128174 -1.8380737 -0.36688232q-0.73461914 -0.48254395 -0.8102112 -1.30719l0.70025635 -0.06347656q0.10372925 0.61816406 0.6019592 0.9181824q0.51379395 0.2986145 1.2918396 0.2281189q0.7313843 -0.06628418 1.15271 -0.43392944q0.42132568 -0.36764526 0.3771057 -0.8500061zm4.8714294 1.3000793q-0.8091736 0.07333374 -1.4998474 -0.27200317q-0.6906433 -0.3453369 -1.1127625 -1.013092q-0.42352295 -0.6833191 -0.50338745 -1.554657l-0.022827148 -0.2489624q-0.08416748 -0.9180298 0.19113159 -1.6803589q0.29086304 -0.7637329 0.8762207 -1.2247009q0.5994873 -0.47790527 1.3308716 -0.54418945q1.1515503 -0.1043396 1.8934326 0.62857056q0.75601196 0.7159424 0.88012695 2.069641l0.03564453 0.38900757l-4.5127563 0.40890503l0.0128479 0.14004517q0.09841919 1.0736084 0.786499 1.7329712q0.6880493 0.6593323 1.6217346 0.57473755q0.5602112 -0.050750732 0.9618225 -0.29110718q0.41574097 -0.25732422 0.7167053 -0.739563l0.46710205 0.30282593q-0.65979004 1.1893921 -2.1225586 1.3219299zm-0.68640137 -5.946686q-0.77804565 0.070495605 -1.2698975 0.69555664q-0.49188232 0.62506104 -0.5109253 1.6152039l3.781372 -0.34265137l-0.0071411133 -0.07778931q-0.11526489 -0.91519165 -0.6645813 -1.4302368q-0.53518677 -0.53201294 -1.3288269 -0.460083zm11.295563 4.8598633q-0.13604736 -0.2857666 -0.22137451 -0.87420654q-0.32925415 0.51620483 -0.8807678 0.83288574q-0.5359497 0.3152771 -1.1739502 0.3730774q-0.9025574 0.08178711 -1.5098267 -0.3809204q-0.6072998 -0.46270752 -0.6786194 -1.2406921q-0.08416748 -0.9180298 0.6298523 -1.5161438q0.71255493 -0.6137085 2.0819397 -0.73776245l1.2760315 -0.1156311l-0.06561279 -0.7157593q-0.06277466 -0.68463135 -0.5171509 -1.019989q-0.45581055 -0.35092163 -1.2494507 -0.27902222q-0.7313843 0.06628418 -1.1795349 0.48342896q-0.44818115 0.41714478 -0.40109253 0.930603l-0.70025635 0.06347656q-0.068481445 -0.7468872 0.58184814 -1.3549194q0.64889526 -0.6235962 1.6759644 -0.7166748q1.0581665 -0.09588623 1.7135315 0.37817383q0.6553955 0.47402954 0.7565613 1.4062195l0.27389526 2.9874573q0.08413696 0.9180298 0.32781982 1.3509216l0.0071411133 0.077819824l-0.74694824 0.06765747zm-2.2397766 -0.29907227q0.70025635 -0.06347656 1.213501 -0.45513916q0.5288086 -0.3930664 0.7264404 -0.97576904l-0.12695312 -1.3848267l-1.2604675 0.11419678q-1.0426025 0.09448242 -1.5996704 0.5215149q-0.5415344 0.42559814 -0.48162842 1.0791016q0.04849243 0.5290222 0.4703369 0.85165405q0.42041016 0.30706787 1.0584412 0.24926758zm4.732025 -6.2964783l0.13095093 1.0863647q0.30371094 -0.62368774 0.8056946 -0.96728516q0.5005493 -0.35913086 1.1385498 -0.41693115q1.0115051 -0.09164429 1.5622253 0.43893433q0.5493164 0.51501465 0.6704407 1.6650391l0.37945557 4.1388855l-0.70025635 0.063446045l-0.3808899 -4.1544495q-0.07702637 -0.84020996 -0.47201538 -1.2123413q-0.39642334 -0.3876953 -1.1744995 -0.3171692q-0.6380005 0.057800293 -1.098877 0.5074768q-0.46087646 0.4496765 -0.6470642 1.1568604l0.3965454 4.3256226l-0.6846924 0.062042236l-0.5791626 -6.3172607l0.653595 -0.05923462zm5.9151 2.5861511q-0.13409424 -1.462616 0.4395752 -2.3931885q0.57369995 -0.9305725 1.6940918 -1.0321045q1.2760315 -0.115600586 2.0534668 0.83374023l-0.32525635 -3.547638l0.6846924 -0.062042236l0.8216858 8.962433l-0.653595 0.0592041l-0.1081543 -0.83740234q-0.5806885 1.0253296 -1.8722534 1.1423645q-1.1048584 0.100128174 -1.8538818 -0.7106018q-0.7348938 -0.82766724 -0.8718262 -2.3214111l-0.008544922 -0.09335327zm0.7116699 0.06100464q0.11126709 1.2136841 0.6578369 1.8701477q0.545166 0.6409302 1.4321594 0.5605469q1.2915955 -0.11703491 1.7320862 -1.3022461l-0.2710266 -2.9563293q-0.65734863 -1.1798706 -1.9333496 -1.06427q-0.8869934 0.0803833 -1.3207703 0.8256836q-0.4196167 0.7283325 -0.29693604 2.0664673zm8.723358 -0.94729614q-0.082733154 -0.9024658 0.19256592 -1.6647949q0.29086304 -0.7637634 0.89178467 -1.2261047q0.6164856 -0.46377563 1.4412231 -0.5385132q1.2604675 -0.114227295 2.1198425 0.70217896q0.8579407 0.8008728 0.9920349 2.2634888l0.0128479 0.14001465q0.08416748 0.9180298 -0.20669556 1.6817627q-0.27529907 0.7623291 -0.89178467 1.2261047q-0.60092163 0.46237183 -1.4256897 0.5371094q-1.244873 0.11279297 -2.119812 -0.7022095q-0.859375 -0.81640625 -0.99346924 -2.2790222l-0.0128479 -0.14001465zm0.7173767 0.1232605q0.10412598 1.1358643 0.74694824 1.8150024q0.65838623 0.6777344 1.607605 0.5917053q0.94924927 -0.085998535 1.4579468 -0.8694763q0.524292 -0.7849121 0.41589355 -1.9674377l-0.0128479 -0.14004517q-0.06561279 -0.7157593 -0.38580322 -1.2986145q-0.3201599 -0.5828552 -0.83251953 -0.86590576q-0.5123596 -0.28302002 -1.1347961 -0.22662354q-0.9336853 0.08459473 -1.4579773 0.8694763q-0.5242615 0.7848816 -0.41586304 1.9674377l0.011413574 0.1244812zm7.0092773 -5.5457764l0.14837646 1.6181946l1.3071289 -0.11843872l0.05279541 0.5757141l-1.3071594 0.11843872l0.38516235 4.2011414q0.04849243 0.5290222 0.25949097 0.77664185q0.22512817 0.23062134 0.66082764 0.19113159q0.1711731 -0.01550293 0.57006836 -0.1144104l0.06832886 0.5743103q-0.25454712 0.13287354 -0.7369385 0.17660522q-0.7158203 0.06484985 -1.0811157 -0.32565308q-0.36532593 -0.39050293 -0.43948364 -1.1996155l-0.38659668 -4.2167053l-1.1515198 0.10437012l-0.05279541 -0.5757141l1.1515503 -0.1043396l-0.14837646 -1.6182251l0.70025635 -0.063446045zm3.6975098 2.3791504q0.28955078 -0.60672 0.7915344 -0.95028687q0.5161133 -0.3605652 1.1541443 -0.41836548q1.0114746 -0.09164429 1.5621948 0.43893433q0.5493164 0.51504517 0.6704407 1.6650391l0.37945557 4.138916l-0.70025635 0.063446045l-0.38085938 -4.1544495q-0.077056885 -0.8402405 -0.4720459 -1.2123718q-0.39642334 -0.3876648 -1.174469 -0.3171692q-0.638031 0.057800293 -1.0989075 0.5074768q-0.46084595 0.4496765 -0.6470642 1.1568604l0.3965454 4.3256226l-0.6846924 0.062042236l-0.8216553 -8.962433l0.6846924 -0.062042236l0.34094238 3.7187805zm8.809631 4.6144714q-0.8092041 0.07333374 -1.4998474 -0.27200317q-0.6906738 -0.3453369 -1.1127625 -1.013092q-0.42352295 -0.6833191 -0.50341797 -1.5546875l-0.022827148 -0.24893188q-0.08416748 -0.9180298 0.19113159 -1.6803589q0.29086304 -0.7637329 0.8762207 -1.2247009q0.5995178 -0.4779358 1.3309021 -0.54418945q1.1515198 -0.1043396 1.8934021 0.62857056q0.75601196 0.7159424 0.88012695 2.069641l0.03567505 0.38900757l-4.512787 0.40890503l0.0128479 0.14004517q0.09841919 1.0736084 0.786499 1.7329712q0.68807983 0.6593323 1.6217346 0.57473755q0.5602112 -0.050750732 0.9618225 -0.29110718q0.41574097 -0.25732422 0.71673584 -0.739563l0.46710205 0.30282593q-0.65982056 1.1893921 -2.1225586 1.3219299zm-0.68640137 -5.946686q-0.7780762 0.070495605 -1.269928 0.69555664q-0.49188232 0.62506104 -0.5109253 1.6152039l3.781372 -0.34265137l-0.0071105957 -0.07778931q-0.11529541 -0.91522217 -0.6646118 -1.4302368q-0.53518677 -0.53201294 -1.3287964 -0.460083zm6.790802 -0.50549316q-0.22073364 -0.011383057 -0.46969604 0.011169434q-0.65356445 0.0592041 -1.0706177 0.47354126q-0.41845703 0.3987732 -0.5579834 1.1017151l0.39797974 4.3411865l-0.6846924 0.062042236l-0.5791626 -6.3172607l0.6691284 -0.060638428l0.108306885 1.0099792q0.457489 -1.171051 1.6868286 -1.2824707q0.28009033 -0.025360107 0.45840454 0.03692627l0.041503906 0.6238098zm6.8330994 4.683716q0.7157898 -0.06484985 1.1766663 -0.51452637q0.45944214 -0.46524048 0.43066406 -1.121582l0.6846924 -0.06201172q0.02166748 0.5785217 -0.27645874 1.0918884q-0.28399658 0.49639893 -0.8185425 0.82724q-0.52038574 0.3138733 -1.1428223 0.37026978q-1.2449036 0.11279297 -2.0561829 -0.69229126q-0.8112488 -0.8050537 -0.9439087 -2.2521057l-0.019989014 -0.21783447q-0.08557129 -0.93359375 0.17559814 -1.6789551q0.26116943 -0.7453613 0.83239746 -1.1893616q0.5867615 -0.44537354 1.3959656 -0.5187073q1.0426025 -0.094451904 1.7687988 0.46728516q0.7403259 0.5447998 0.8797302 1.5519409l-0.6846924 0.062042236q-0.11517334 -0.74261475 -0.638916 -1.1501465q-0.5237732 -0.40753174 -1.2707214 -0.33984375q-0.94924927 0.085998535 -1.4155579 0.818573q-0.45074463 0.73117065 -0.3380432 1.9603882l0.01852417 0.20227051q0.11126709 1.2136536 0.68756104 1.8517761q0.5904236 0.62112427 1.5552368 0.5336914zm4.6430664 0.049957275l-0.70025635 0.063446045l-0.8216553 -8.962402l0.70025635 -0.063446045l0.8216553 8.962402zm5.884094 -0.5331726q-0.13601685 -0.28573608 -0.221344 -0.87420654q-0.32925415 0.51620483 -0.8807678 0.83288574q-0.5359497 0.3152771 -1.1739807 0.3730774q-0.90252686 0.08178711 -1.5098267 -0.3809204q-0.6072693 -0.46270752 -0.67858887 -1.2406921q-0.08416748 -0.9180298 0.6298218 -1.5161438q0.71258545 -0.6137085 2.0819702 -0.73776245l1.2760315 -0.1156311l-0.06564331 -0.7157593q-0.06274414 -0.68463135 -0.5171509 -1.019989q-0.45581055 -0.35092163 -1.2494202 -0.27902222q-0.7313843 0.06628418 -1.1795654 0.48342896q-0.44815063 0.41714478 -0.401062 0.930603l-0.70025635 0.06347656q-0.068481445 -0.7468872 0.58184814 -1.3549194q0.64889526 -0.6235962 1.6759338 -0.7166748q1.0581665 -0.09588623 1.713562 0.37817383q0.6553955 0.47402954 0.75653076 1.4062195l0.27389526 2.9874573q0.08416748 0.9180298 0.32781982 1.3509216l0.0071411133 0.077819824l-0.74694824 0.06765747zm-2.2397766 -0.29907227q0.70025635 -0.06347656 1.2135315 -0.45513916q0.5288086 -0.3930664 0.7264404 -0.97576904l-0.12695312 -1.3848267l-1.2604675 0.11419678q-1.0426025 0.09448242 -1.5997009 0.5215149q-0.5415344 0.42559814 -0.48162842 1.0791016q0.04852295 0.5290222 0.47036743 0.85165405q0.42041016 0.30706787 1.0584106 0.24926758zm8.646362 -1.081543q-0.5538635 0.9758301 -1.9388123 1.1013184q-1.0114746 0.09164429 -1.5947571 -0.45169067q-0.567749 -0.54473877 -0.6888733 -1.6947327l-0.3765869 -4.107788l0.70025635 -0.063446045l0.36947632 4.0299683q0.16403198 1.7893677 1.6112366 1.6582336q1.5249939 -0.1381836 1.8154602 -1.4196167l-0.41937256 -4.5745544l0.70025635 -0.063446045l0.5791626 6.3172607l-0.6846924 0.062042236l-0.072753906 -0.7935486zm6.210602 -1.3786011q-0.04849243 -0.5290222 -0.49716187 -0.80215454q-0.44869995 -0.2731018 -1.3046875 -0.36813354q-0.8574219 -0.110565186 -1.3456726 -0.30166626q-0.4882202 -0.19110107 -0.75161743 -0.4967041q-0.24780273 -0.30700684 -0.2920227 -0.7893677q-0.068481445 -0.7468567 0.5097656 -1.285614q0.5937805 -0.54016113 1.5585632 -0.627594q1.0581665 -0.09588623 1.74469 0.3753357q0.6850891 0.45565796 0.7621155 1.2958984l-0.70025635 0.063446045q-0.051361084 -0.56015015 -0.5509949 -0.8757324q-0.48550415 -0.33255005 -1.2013245 -0.26766968q-0.6846924 0.062042236 -1.0763245 0.4112854q-0.3930664 0.33370972 -0.3474121 0.8316345q0.042785645 0.46679688 0.4093933 0.70028687q0.38217163 0.23208618 1.3202515 0.36672974q0.9366455 0.11907959 1.4107666 0.32714844q0.48965454 0.20666504 0.7388916 0.52923584q0.26480103 0.321167 0.31045532 0.8190613q0.072753906 0.7935486 -0.5365906 1.335144q-0.59381104 0.54016113 -1.6364136 0.63461304q-1.1048584 0.100128174 -1.8380432 -0.36688232q-0.73461914 -0.48254395 -0.8102112 -1.30719l0.70025635 -0.06347656q0.10372925 0.61816406 0.6019592 0.9181824q0.5137634 0.2986145 1.2918396 0.2281189q0.7313843 -0.06628418 1.15271 -0.43392944q0.42129517 -0.36764526 0.3770752 -0.8500061zm4.87146 1.3000793q-0.8091736 0.07333374 -1.4998474 -0.27200317q-0.6906433 -0.3453369 -1.1127625 -1.013092q-0.42352295 -0.6833191 -0.50341797 -1.554657l-0.022827148 -0.2489624q-0.08413696 -0.9180298 0.19116211 -1.6803589q0.29086304 -0.7637329 0.8762207 -1.2247009q0.5994873 -0.47790527 1.3308716 -0.54418945q1.1515198 -0.1043396 1.8934021 0.62857056q0.7560425 0.7159424 0.88012695 2.069641l0.03567505 0.38900757l-4.5127563 0.40890503l0.012817383 0.14004517q0.09844971 1.0736084 0.786499 1.7329712q0.68807983 0.6593323 1.6217651 0.57473755q0.56018066 -0.050750732 0.961792 -0.29110718q0.41577148 -0.25732422 0.71673584 -0.739563l0.46710205 0.30282593q-0.65979004 1.1893921 -2.1225586 1.3219299zm-0.68640137 -5.946686q-0.77804565 0.070495605 -1.269928 0.69555664q-0.4918518 0.62506104 -0.5109253 1.6152039l3.7814026 -0.34265137l-0.0071411133 -0.07778931q-0.11529541 -0.91519165 -0.6646118 -1.4302368q-0.53515625 -0.53201294 -1.3287964 -0.460083zm8.040253 3.5388794q-0.04849243 -0.52905273 -0.49719238 -0.80215454q-0.44866943 -0.27313232 -1.304657 -0.36816406q-0.8574524 -0.110565186 -1.3456726 -0.30166626q-0.48825073 -0.19110107 -0.75161743 -0.4967041q-0.24780273 -0.30700684 -0.2920227 -0.7893677q-0.068481445 -0.7468567 0.5097351 -1.285614q0.59381104 -0.54016113 1.5585938 -0.627594q1.0581665 -0.09585571 1.74469 0.3753662q0.6850891 0.45565796 0.7621155 1.2958679l-0.70025635 0.063446045q-0.051361084 -0.56015015 -0.5509949 -0.8757019q-0.48553467 -0.33255005 -1.201355 -0.2677002q-0.6846924 0.062042236 -1.076294 0.41131592q-0.3930664 0.33370972 -0.3474121 0.831604q0.042785645 0.46679688 0.4093933 0.70028687q0.38217163 0.23208618 1.3202515 0.36672974q0.9366455 0.11911011 1.4107361 0.32717896q0.48968506 0.20663452 0.7389221 0.5292053q0.26480103 0.321167 0.31045532 0.8190918q0.072753906 0.7935486 -0.5366211 1.3351135q-0.5937805 0.54016113 -1.636383 0.63464355q-1.1048584 0.100097656 -1.8380432 -0.36688232q-0.73461914 -0.48254395 -0.8102417 -1.3072205l0.70025635 -0.063446045q0.103759766 0.61816406 0.60198975 0.9181824q0.5137634 0.29858398 1.2918396 0.22808838q0.7313843 -0.06628418 1.1526794 -0.43392944q0.42132568 -0.36764526 0.3771057 -0.8499756z" fill-rule="nonzero"/><path fill="#000000" d="m238.15233 334.75656l-0.52638245 -5.7415466l-1.0426025 0.09448242l-0.05278015 -0.5757141l1.0426025 -0.09448242l-0.069885254 -0.76242065q-0.0884552 -0.9647217 0.34687805 -1.5218811q0.44944763 -0.5741577 1.336441 -0.654541q0.3890381 -0.035247803 0.73994446 0.02709961l0.007522583 0.5954895q-0.3027954 -0.050994873 -0.6451416 -0.019989014q-0.57577515 0.05218506 -0.86831665 0.4552307q-0.27841187 0.38607788 -0.21850586 1.0395813l0.07131958 0.7779846l1.5094452 -0.13677979l0.05278015 0.5757141l-1.5094452 0.13677979l0.52638245 5.7415466l-0.70025635 0.063446045zm5.8434906 -6.3030396q-0.22070312 -0.011383057 -0.46969604 0.011169434q-0.65356445 0.05923462 -1.0706024 0.47357178q-0.4184723 0.39874268 -0.55799866 1.1017151l0.397995 4.341156l-0.6846924 0.062042236l-0.5791626 -6.3172607l0.6691284 -0.06060791l0.108291626 1.0099487q0.457489 -1.171051 1.6868286 -1.2824402q0.2801056 -0.025390625 0.45840454 0.036895752l0.041503906 0.6238098zm0.8317566 2.4191895q-0.082733154 -0.9024658 0.19256592 -1.6647949q0.29086304 -0.7637329 0.89178467 -1.2261047q0.6164856 -0.46377563 1.4412384 -0.5385132q1.2604523 -0.11419678 2.1198273 0.7022095q0.8579407 0.8008423 0.9920349 2.2634583l0.0128479 0.14004517q0.08415222 0.91799927 -0.20671082 1.6817627q-0.27529907 0.7623291 -0.89178467 1.2261047q-0.60092163 0.4623413 -1.4256592 0.53707886q-1.2449036 0.11279297 -2.1198425 -0.70217896q-0.859375 -0.81640625 -0.993454 -2.2790222l-0.0128479 -0.14004517zm0.7173767 0.1232605q0.104141235 1.1358643 0.74694824 1.8150024q0.658371 0.6777344 1.607605 0.5917053q0.949234 -0.085998535 1.457962 -0.8694763q0.52427673 -0.7848816 0.41586304 -1.9674377l-0.012832642 -0.14004517q-0.06562805 -0.71572876 -0.38580322 -1.298584q-0.32017517 -0.58288574 -0.83251953 -0.86590576q-0.5123596 -0.28305054 -1.1348114 -0.22665405q-0.93367004 0.08459473 -1.457962 0.8694763q-0.52427673 0.7849121 -0.41586304 1.9674377l0.011413574 0.1244812zm6.706375 -3.8866577l0.1252594 1.0241089q0.28956604 -0.60672 0.792984 -0.9347534q0.5034027 -0.32800293 1.1414032 -0.38580322q1.4938812 -0.13537598 2.009735 1.041626q0.2895813 -0.60672 0.82125854 -0.96868896q0.5458069 -0.37893677 1.2149353 -0.43954468q2.0385132 -0.1847229 2.2877808 2.0205383l0.38656616 4.216675l-0.70025635 0.06347656l-0.38085938 -4.15448q-0.09402466 -0.8543701 -0.48901367 -1.2265015q-0.39501953 -0.37210083 -1.2041931 -0.2987976q-0.74694824 0.06768799 -1.2318115 0.59799194q-0.46929932 0.5288696 -0.47018433 1.2035828l0.38372803 4.1855774l-0.70025635 0.063446045l-0.38659668 -4.2167053q-0.07417297 -0.80908203 -0.49887085 -1.1628418q-0.41055298 -0.37069702 -1.1886139 -0.30020142q-0.6535797 0.0592041 -1.1017303 0.47634888q-0.43260193 0.41574097 -0.59754944 1.1837769l0.39656067 4.325592l-0.70025635 0.063446045l-0.5791626 -6.3172607l0.6691437 -0.06060791zm13.800339 -2.882141l0.14837646 1.6182251l1.3071289 -0.11843872l0.05279541 0.5757141l-1.3071594 0.11843872l0.38516235 4.2011414q0.04849243 0.5290222 0.25949097 0.7766113q0.22512817 0.23062134 0.66082764 0.19116211q0.1711731 -0.015533447 0.57006836 -0.1144104l0.06832886 0.5742798q-0.25454712 0.13290405 -0.7369385 0.17660522q-0.7158203 0.06488037 -1.0811157 -0.32562256q-0.3652954 -0.39050293 -0.43948364 -1.1996155l-0.38659668 -4.2167053l-1.1515198 0.1043396l-0.05279541 -0.5757141l1.1515503 -0.1043396l-0.14837646 -1.6181946l0.70025635 -0.06347656zm3.6975098 2.379181q0.28955078 -0.60672 0.7915344 -0.9503174q0.5161133 -0.36053467 1.1541443 -0.41833496q1.0114746 -0.091674805 1.5621948 0.43893433q0.5493164 0.51501465 0.6704407 1.6650391l0.37945557 4.1388855l-0.70025635 0.063446045l-0.38085938 -4.1544495q-0.077056885 -0.84020996 -0.4720459 -1.2123413q-0.39642334 -0.3876953 -1.174469 -0.3171997q-0.638031 0.05783081 -1.0989075 0.5075073q-0.46084595 0.4496765 -0.6470642 1.1568604l0.3965454 4.325592l-0.6846924 0.062042236l-0.8216553 -8.962402l0.6846924 -0.062042236l0.34094238 3.7187805zm8.809631 4.6144714q-0.8091736 0.07330322 -1.4998474 -0.2720337q-0.6906738 -0.3453369 -1.1127625 -1.013092q-0.42352295 -0.6833191 -0.50341797 -1.554657l-0.022827148 -0.2489624q-0.08416748 -0.9180298 0.19113159 -1.6803589q0.29086304 -0.7637329 0.8762207 -1.2246704q0.5995178 -0.4779358 1.3309021 -0.54422q1.1515198 -0.1043396 1.8934021 0.6286011q0.75601196 0.7159424 0.88012695 2.069641l0.03567505 0.38897705l-4.512787 0.40890503l0.0128479 0.14004517q0.09841919 1.0736389 0.786499 1.7329712q0.68807983 0.6593628 1.6217346 0.57473755q0.5602112 -0.050750732 0.9618225 -0.29110718q0.41574097 -0.2572937 0.71673584 -0.739563l0.46710205 0.30282593q-0.65979004 1.1893921 -2.1225586 1.3219604zm-0.68640137 -5.9467163q-0.7780762 0.070495605 -1.269928 0.69555664q-0.4918518 0.62506104 -0.5109253 1.6152039l3.781372 -0.34262085l-0.0071105957 -0.077819824q-0.11529541 -0.91519165 -0.6646118 -1.4302368q-0.53518677 -0.5319824 -1.3287964 -0.460083zm12.100952 1.6647949q0.13552856 1.4781799 -0.4381714 2.4087524q-0.57369995 0.9305725 -1.6785278 1.0306702q-1.2915955 0.11703491 -2.0604553 -0.73895264l0.2952881 3.2208557l-0.70025635 0.06347656l-0.8016968 -8.744598l0.65356445 -0.0592041l0.113861084 0.8996277q0.59198 -1.0734253 1.8835754 -1.1904602q1.1359558 -0.10293579 1.852417 0.69506836q0.73205566 0.7965393 0.8718567 2.3214111l0.008544922 0.09335327zm-0.7116699 -0.061035156q-0.10983276 -1.1980896 -0.6719971 -1.8531494q-0.5621338 -0.65509033 -1.4491272 -0.57470703q-0.638031 0.057800293 -1.0763245 0.41131592q-0.42419434 0.33651733 -0.6189575 0.9503479l0.27816772 3.0341492q0.29891968 0.5220337 0.7928467 0.7753601q0.4925232 0.23779297 1.1305237 0.17996216q0.87142944 -0.078948975 1.3052063 -0.82424927q0.43234253 -0.7608948 0.30966187 -2.0990295zm4.930847 -2.9727173q-0.22073364 -0.011383057 -0.46969604 0.011199951q-0.653595 0.0592041 -1.0706177 0.47354126q-0.41845703 0.3987732 -0.5580139 1.1017151l0.39801025 4.3411865l-0.6846924 0.062042236l-0.5791626 -6.3172607l0.6691284 -0.060638428l0.10827637 1.0099792q0.45751953 -1.1710815 1.6868591 -1.2824707q0.28009033 -0.025360107 0.45840454 0.03692627l0.041503906 0.6237793zm0.8317566 2.4191895q-0.08276367 -0.9024658 0.19256592 -1.6647949q0.29086304 -0.7637329 0.89178467 -1.2261047q0.6164551 -0.46377563 1.4412231 -0.53848267q1.2604675 -0.114227295 2.119812 0.70217896q0.8579712 0.8008423 0.9920654 2.2634583l0.012817383 0.14004517q0.08416748 0.9180298 -0.20669556 1.6817627q-0.27529907 0.7623291 -0.89178467 1.2261047q-0.60092163 0.46237183 -1.4256592 0.53707886q-1.2449036 0.11282349 -2.1198425 -0.70217896q-0.859375 -0.81640625 -0.99346924 -2.2790222l-0.012817383 -0.14004517zm0.7173462 0.1232605q0.104156494 1.1358643 0.74694824 1.8150024q0.65838623 0.6777344 1.6076355 0.59173584q0.94921875 -0.08602905 1.4579468 -0.86950684q0.524292 -0.7848816 0.41586304 -1.9674377l-0.0128479 -0.14001465q-0.06561279 -0.7157593 -0.3857727 -1.2986145q-0.32019043 -0.5828552 -0.83255005 -0.86590576q-0.5123596 -0.28305054 -1.1347961 -0.22665405q-0.9336853 0.08459473 -1.4579468 0.86950684q-0.524292 0.7848816 -0.41586304 1.9674377l0.011383057 0.12445068zm8.954498 1.8087158q0.7157898 -0.06488037 1.1766663 -0.5145569q0.45944214 -0.46520996 0.43066406 -1.1215515l0.6846924 -0.062042236q0.02166748 0.5785217 -0.27645874 1.091919q-0.28399658 0.49639893 -0.81851196 0.82724q-0.52041626 0.31384277 -1.1428528 0.37023926q-1.2449036 0.11282349 -2.0561523 -0.69226074q-0.8112793 -0.8050842 -0.9439392 -2.2521362l-0.019989014 -0.21783447q-0.08557129 -0.93359375 0.17559814 -1.6789551q0.26116943 -0.7453613 0.83239746 -1.189331q0.5867615 -0.44540405 1.3959656 -0.5187073q1.0426025 -0.09448242 1.7687988 0.46728516q0.7403259 0.5447693 0.8797302 1.5519409l-0.6846924 0.062042236q-0.11517334 -0.74264526 -0.638916 -1.150177q-0.5237732 -0.40750122 -1.2707214 -0.33984375q-0.94921875 0.08602905 -1.4155579 0.8186035q-0.45074463 0.73114014 -0.3380432 1.9603577l0.01852417 0.20230103q0.11126709 1.2136536 0.68756104 1.8517456q0.5904236 0.62112427 1.5552368 0.5337219zm6.3195496 0.02355957q-0.8092041 0.07330322 -1.4998474 -0.2720337q-0.6906738 -0.3453064 -1.1127625 -1.0130615q-0.42352295 -0.6833191 -0.50341797 -1.5546875l-0.022827148 -0.2489624q-0.08416748 -0.91799927 0.19113159 -1.6803284q0.29086304 -0.7637634 0.8762207 -1.2247009q0.5995178 -0.4779358 1.3308716 -0.54418945q1.1515503 -0.1043396 1.8934326 0.62857056q0.75601196 0.7159424 0.88012695 2.069641l0.03567505 0.38900757l-4.512787 0.40890503l0.0128479 0.14001465q0.09841919 1.0736389 0.786499 1.7329712q0.68807983 0.6593628 1.6217346 0.57476807q0.5602112 -0.05078125 0.9618225 -0.29110718q0.41574097 -0.25732422 0.71673584 -0.7395935l0.46710205 0.30285645q-0.65982056 1.1893921 -2.1225586 1.3219299zm-0.68640137 -5.9467163q-0.7780762 0.07052612 -1.269928 0.69558716q-0.49188232 0.62506104 -0.5109253 1.6151733l3.781372 -0.34262085l-0.0071105957 -0.07778931q-0.11529541 -0.91522217 -0.6646118 -1.4302368q-0.53518677 -0.53201294 -1.3287964 -0.46011353zm8.040253 3.5388794q-0.04852295 -0.5290222 -0.49719238 -0.80215454q-0.44866943 -0.2731018 -1.3046875 -0.36813354q-0.8574219 -0.110565186 -1.3456421 -0.30166626q-0.48825073 -0.19110107 -0.75161743 -0.4967041q-0.24783325 -0.30700684 -0.29205322 -0.7893677q-0.06845093 -0.7468567 0.5097656 -1.285614q0.5937805 -0.54016113 1.5585938 -0.627594q1.0581665 -0.09588623 1.7446594 0.3753357q0.6850891 0.45565796 0.7621155 1.2958984l-0.70025635 0.063446045q-0.051330566 -0.56015015 -0.5509949 -0.8757324q-0.48550415 -0.33251953 -1.2013245 -0.26766968q-0.6846924 0.062042236 -1.0763245 0.41131592q-0.3930359 0.3336792 -0.3473816 0.831604q0.042785645 0.46679688 0.4093933 0.70028687q0.3821411 0.23208618 1.320221 0.36672974q0.936676 0.11907959 1.4107666 0.32714844q0.48965454 0.20666504 0.7388916 0.52923584q0.26480103 0.321167 0.31045532 0.8190918q0.072753906 0.79351807 -0.5365906 1.3351135q-0.5937805 0.54016113 -1.636383 0.63461304q-1.1048584 0.100128174 -1.8380432 -0.3668518q-0.73464966 -0.48257446 -0.8102417 -1.3072205l0.70025635 -0.06347656q0.103759766 0.61816406 0.6019592 0.9181824q0.51379395 0.2986145 1.2918396 0.2281189q0.7313843 -0.06628418 1.15271 -0.43392944q0.42132568 -0.36764526 0.3771057 -0.8500061zm6.051361 -0.5483093q-0.04849243 -0.5290222 -0.49716187 -0.80215454q-0.44869995 -0.27313232 -1.3046875 -0.36813354q-0.8574219 -0.1105957 -1.3456726 -0.30166626q-0.4882202 -0.19110107 -0.75161743 -0.4967041q-0.24780273 -0.30703735 -0.2920227 -0.7893677q-0.068481445 -0.7468872 0.5097656 -1.2856445q0.5937805 -0.54016113 1.5585632 -0.6275635q1.0581665 -0.09588623 1.74469 0.3753357q0.6850891 0.45565796 0.7621155 1.2958984l-0.70025635 0.063446045q-0.051361084 -0.56015015 -0.5509949 -0.8757324q-0.48550415 -0.33255005 -1.2013245 -0.26766968q-0.6846924 0.06201172 -1.0763245 0.4112854q-0.3930664 0.33370972 -0.3474121 0.8316345q0.042816162 0.46679688 0.4093933 0.70028687q0.38217163 0.23208618 1.3202515 0.36672974q0.9366455 0.11907959 1.4107666 0.32714844q0.48965454 0.20666504 0.7388916 0.52923584q0.26480103 0.321167 0.31045532 0.8190613q0.072753906 0.7935486 -0.5365906 1.3351135q-0.59381104 0.54016113 -1.6364136 0.63464355q-1.1048279 0.100128174 -1.8380432 -0.36688232q-0.73461914 -0.48254395 -0.8102112 -1.3072205l0.70025635 -0.063446045q0.10372925 0.61816406 0.6019592 0.9181824q0.5137634 0.29858398 1.2918396 0.22808838q0.7313843 -0.06625366 1.15271 -0.43389893q0.42129517 -0.36764526 0.3770752 -0.8500061zm4.87146 1.3000793q-0.8091736 0.07330322 -1.4998474 -0.27200317q-0.6906433 -0.3453369 -1.1127625 -1.013092q-0.42352295 -0.6833191 -0.50341797 -1.5546875l-0.02279663 -0.24893188q-0.08416748 -0.9180298 0.19113159 -1.6803589q0.29086304 -0.7637634 0.8762207 -1.2247009q0.5994873 -0.4779358 1.3308716 -0.54418945q1.1515198 -0.1043396 1.8934021 0.62857056q0.7560425 0.7159424 0.88012695 2.069641l0.03567505 0.38900757l-4.5127563 0.40890503l0.0128479 0.14001465q0.09841919 1.0736389 0.786499 1.7329712q0.6880493 0.6593628 1.6217346 0.57476807q0.5602112 -0.05078125 0.9618225 -0.29110718q0.41574097 -0.25732422 0.7167053 -0.7395935l0.46710205 0.30285645q-0.65979004 1.1893921 -2.1225586 1.3219299zm-0.68640137 -5.946686q-0.77804565 0.070495605 -1.269928 0.69555664q-0.4918518 0.62506104 -0.5109253 1.6151733l3.7814026 -0.34262085l-0.0071411133 -0.07778931q-0.11529541 -0.91522217 -0.6646118 -1.4302368q-0.53515625 -0.53201294 -1.3287964 -0.460083zm3.8304138 2.2886658q-0.13409424 -1.462616 0.4396057 -2.3931885q0.57366943 -0.9305725 1.6940918 -1.032074q1.2760315 -0.1156311 2.0534363 0.8337097l-0.32522583 -3.547638l0.6846924 -0.062042236l0.8216553 8.962433l-0.65356445 0.05923462l-0.1081543 -0.83743286q-0.5806885 1.0253601 -1.8722839 1.142395q-1.1048584 0.100097656 -1.8538513 -0.7106323q-0.7348938 -0.82766724 -0.8718262 -2.3214111l-0.008575439 -0.09335327zm0.7116699 0.061035156q0.11126709 1.2136536 0.65786743 1.8701172q0.545166 0.6409302 1.4321594 0.5605469q1.291565 -0.117004395 1.7320862 -1.3022461l-0.2710266 -2.9563293q-0.65734863 -1.1798706 -1.9333801 -1.06427q-0.8869934 0.0803833 -1.3207397 0.8256836q-0.41964722 0.72836304 -0.29696655 2.0664978zm13.045013 0.3241272q-0.04852295 -0.52905273 -0.49719238 -0.80215454q-0.44869995 -0.27313232 -1.3046875 -0.36816406q-0.8574219 -0.110565186 -1.3456726 -0.30166626q-0.4882202 -0.19110107 -0.7515869 -0.4967041q-0.24783325 -0.30700684 -0.29205322 -0.7893677q-0.06845093 -0.7468567 0.5097656 -1.285614q0.5937805 -0.54016113 1.5585938 -0.627594q1.0581665 -0.09585571 1.7446594 0.3753662q0.6850891 0.45565796 0.7621155 1.2958679l-0.70025635 0.063446045q-0.051330566 -0.56015015 -0.5509949 -0.8757019q-0.48550415 -0.33255005 -1.2013245 -0.2677002q-0.6846924 0.062042236 -1.0763245 0.41131592q-0.3930359 0.33370972 -0.3473816 0.831604q0.042785645 0.46679688 0.4093933 0.70028687q0.3821411 0.23208618 1.320221 0.36672974q0.936676 0.11911011 1.4107666 0.32714844q0.48965454 0.20666504 0.7388916 0.52923584q0.26480103 0.321167 0.31045532 0.8190918q0.072753906 0.7935486 -0.5365906 1.3351135q-0.5937805 0.54016113 -1.636383 0.63464355q-1.1048584 0.100097656 -1.8380432 -0.36688232q-0.73464966 -0.48254395 -0.8102417 -1.3072205l0.70025635 -0.063446045q0.10372925 0.61816406 0.6019592 0.91815186q0.51379395 0.2986145 1.2918396 0.2281189q0.7313843 -0.06628418 1.15271 -0.43392944q0.42132568 -0.36764526 0.3771057 -0.8499756zm4.87146 1.3000488q-0.8092041 0.07333374 -1.4998474 -0.27200317q-0.6906738 -0.3453369 -1.1127625 -1.013092q-0.42355347 -0.6833191 -0.50341797 -1.554657l-0.022827148 -0.2489624q-0.08416748 -0.9180298 0.19113159 -1.6803589q0.29086304 -0.7637329 0.8762207 -1.2246704q0.5994873 -0.4779358 1.3308716 -0.54422q1.1515503 -0.1043396 1.8934326 0.6286011q0.75601196 0.7159424 0.88012695 2.069641l0.03564453 0.38897705l-4.5127563 0.40890503l0.0128479 0.14004517q0.09841919 1.0736389 0.786499 1.7329712q0.6880493 0.6593628 1.6217346 0.57473755q0.5602112 -0.050750732 0.9618225 -0.29110718q0.41574097 -0.2572937 0.7167053 -0.739563l0.46710205 0.30282593q-0.65979004 1.1893921 -2.122528 1.3219299zm-0.6864319 -5.946686q-0.77804565 0.070495605 -1.2698975 0.69555664q-0.49188232 0.62506104 -0.5109253 1.6152039l3.781372 -0.34262085l-0.0071411133 -0.077819824q-0.11526489 -0.91519165 -0.6645813 -1.4302368q-0.53518677 -0.5319824 -1.3288269 -0.460083zm4.752014 -2.548584l0.14837646 1.6181946l1.3071289 -0.11843872l0.05279541 0.5757141l-1.3071594 0.11843872l0.38516235 4.2011414q0.04849243 0.5290222 0.25949097 0.7766113q0.22512817 0.23065186 0.66082764 0.19116211q0.1711731 -0.01550293 0.57006836 -0.1144104l0.06832886 0.5743103q-0.25454712 0.13287354 -0.7369385 0.1765747q-0.7158203 0.06488037 -1.0811157 -0.32562256q-0.36532593 -0.39050293 -0.43948364 -1.1996155l-0.38659668 -4.2167053l-1.1515198 0.1043396l-0.05279541 -0.5756836l1.1515503 -0.10437012l-0.14837646 -1.6181946l0.70025635 -0.063446045z" fill-rule="nonzero"/></g></svg>